<?xml version="1.0" encoding="UTF-8"?><svg xmlns="http://www.w3.org/2000/svg" xmlns:xlink="http://www.w3.org/1999/xlink" viewBox="0 0 505.52 367.11"><defs><style>.g{fill:#ffec9e;}.h{clip-path:url(#e);}.i{clip-path:url(#d);}.j{fill:none;}.k{clip-path:url(#f);}</style><clipPath id="d"><path class="j" d="M37.55,190.93h113.94l1.12-7.35-4.31-4.47s-6.39-2.72-14.06-30.36c5.75-1.12,16.3-8.63,16.3-8.63l6.91-39.91-19.06-38.83-13.66-24.45s-12.58-7.91-14.74-7.91h-34.16s-31.28,17.26-33.8,21.57c-2.52,4.31-20.49,9.35-21.21,23.73-.72,14.38,11.65,69.39,11.65,69.39l5.09,47.22Z"/></clipPath><clipPath id="e"><rect class="j" x="61.25" y="143.95" width="223.16" height="223.16" rx="40.88" ry="40.88"/></clipPath><clipPath id="f"><rect class="j" x="237.27" y="13.5" width="264.15" height="264.15" rx="40.88" ry="40.88"/></clipPath></defs><g id="a"/><g id="b"><g id="c"><g><rect class="g" y="8.54" width="179.97" height="179.97" rx="40.88" ry="40.88"/><g class="i"><image transform="translate(6.01) scale(.06)" xlink:href="../assets/first.png"/></g><g class="h"><image transform="translate(61.25 143.95) scale(.07)" xlink:href="../assets/2.jpg"/></g><g class="k"><image transform="translate(233.16 9.39) scale(.09)" xlink:href="../assets/1.jpg"/></g></g></g></g></svg>