<?xml version="1.0" encoding="UTF-8"?><svg xmlns="http://www.w3.org/2000/svg" viewBox="0 0 50.83 51.67"><defs><style>.d{fill:#9982a2;}.e{fill:#bf9cc9;stroke:#000;stroke-miterlimit:10;stroke-width:2px;}.f{fill:#fff;}</style></defs><g id="a"/><g id="b"><g id="c"><g><circle class="d" cx="27.17" cy="28.01" r="23.66"/><g><path class="e" d="M48.32,24.66c0,13.07-10.59,23.66-23.66,23.66S1,37.72,1,24.66,11.59,1,24.66,1s23.66,10.59,23.66,23.66Z"/><path class="f" d="M34.74,15.4c-1.86-.85-3.84-1.48-5.92-1.84-.04,0-.08,.01-.1,.05-.26,.46-.54,1.05-.74,1.52-2.24-.33-4.46-.33-6.65,0-.2-.48-.49-1.06-.75-1.52-.02-.03-.06-.05-.1-.05-2.08,.36-4.07,.99-5.92,1.84-.02,0-.03,.02-.04,.03-3.77,5.64-4.81,11.14-4.3,16.57,0,.03,.02,.05,.04,.07,2.49,1.83,4.9,2.94,7.27,3.67,.04,.01,.08,0,.1-.03,.56-.76,1.06-1.57,1.49-2.42,.03-.05,0-.11-.05-.13-.79-.3-1.55-.67-2.27-1.08-.06-.03-.06-.12,0-.15,.15-.11,.31-.23,.45-.35,.03-.02,.06-.03,.09-.01,4.76,2.17,9.92,2.17,14.63,0,.03-.02,.07-.01,.1,.01,.15,.12,.3,.24,.45,.35,.05,.04,.05,.12,0,.15-.73,.42-1.48,.78-2.27,1.08-.05,.02-.07,.08-.05,.13,.44,.85,.94,1.65,1.49,2.42,.02,.03,.06,.05,.1,.03,2.38-.74,4.79-1.85,7.28-3.67,.02-.02,.04-.04,.04-.07,.61-6.28-1.02-11.73-4.3-16.57,0-.02-.02-.03-.04-.03Zm-14.91,13.29c-1.43,0-2.62-1.32-2.62-2.93s1.16-2.93,2.62-2.93,2.64,1.33,2.62,2.93c0,1.62-1.16,2.93-2.62,2.93Zm9.67,0c-1.43,0-2.62-1.32-2.62-2.93s1.16-2.93,2.62-2.93,2.64,1.33,2.62,2.93c0,1.62-1.15,2.93-2.62,2.93Z"/></g></g></g></g></svg>