<?xml version="1.0" encoding="UTF-8"?><svg xmlns="http://www.w3.org/2000/svg" viewBox="0 0 329.04 178.02"><defs><style>.d{fill:#fff;}</style></defs><g id="a"/><g id="b"><g id="c"><g><path class="d" d="M231.65,130.88c4.16-17.19,11.34-24.57,23.99-24.78,12.25-.2,20.52,7.02,24.75,21.6,15.44-1.26,21.66,4.5,25.4,17.05,3.47,0,7.02-.59,10.29,.11,8.65,1.86,13.74,9.4,12.83,18.14-.86,8.27-7.53,14.87-16.06,14.91-37.29,.16-74.58,.13-111.87,.03-6.79-.02-11.85-5.12-12.19-11.5-.34-6.35,4.3-11.54,11.03-12.6,1.26-.2,3.24-.9,3.49-1.76,4.04-14.4,14.04-20.71,28.33-21.21Z"/><path class="d" d="M84.61,113.81c-20.06,10.85-29.97,11.1-48.84,1.48-11.66,7.68-20.4,8.07-28.52,1.25-11.77-9.89-8.75-28.69,5.85-34.43,4.05-1.59,6.04-3.06,6.93-7.78,3.4-17.95,15.63-28.15,37.34-32.33C64.67,13.55,75.74,1.56,96,.13c19.76-1.39,32.69,8.49,43.72,33.39,2.79,0,5.57,.07,8.35-.01,19.42-.54,33.2,8.18,42.38,25.13,1.42,2.62,4.69,5.18,7.58,5.9,12.36,3.08,20.75,10.12,23.46,22.63,2.48,11.45-1.31,21.26-10.67,28.32-10.27,7.74-21.13,7.79-32.41,1.61-2.16-1.19-5.88-1.32-8.12-.29-13.41,6.12-26.53,6.14-39.9-.07-2.1-.97-5.52-1.14-7.46-.08-13.32,7.29-25.84,6.13-38.32-2.85Z"/></g></g></g></svg>