<?xml version="1.0" encoding="UTF-8"?><svg xmlns="http://www.w3.org/2000/svg" viewBox="0 0 1920 212.31"><defs><style>.d{fill:#fff;}</style></defs><g id="a"/><g id="b"><g id="c"><g><path class="d" d="M1920,212.31c-2.06-36.66-32.36-65.78-69.54-65.78-10.37,0-20.17,2.32-29.01,6.38-15.43-68.27-76.41-119.27-149.35-119.27s-136.54,53.2-150.29,123.67c-10.76-6.79-23.47-10.78-37.13-10.78s-27.1,4.19-38.04,11.33c-12.24-26.36-38.21-44.95-68.76-46.64C1359.63,47.03,1300.62,0,1230.58,0s-129.68,47.53-147.58,112.24c-3.2-.32-6.45-.49-9.73-.49-41.5,0-76.7,26.56-89.79,63.57-12.79-15.19-31.93-24.87-53.35-24.87-35.85,0-65.34,27.06-69.26,61.86H1920Z"/><path class="d" d="M399.53,212.31c.38-.91,.81-1.8,1.17-2.72,.22,.92,.52,1.81,.77,2.72H985.52c-2.04-30.28-27.19-54.23-57.98-54.23-10.08,0-19.56,2.57-27.83,7.08-10.32-37.64-44.69-65.34-85.61-65.34-16.18,0-31.3,4.39-44.37,11.95-17.31-52.03-66.36-89.56-124.2-89.56s-103.59,35.05-122.35,84.36c-10.85-4.66-22.79-7.27-35.35-7.27-9.9,0-19.39,1.67-28.29,4.63-10.82-21.01-32.68-35.4-57.94-35.4-10.54,0-20.45,2.56-29.26,6.99-22.8-22.89-54.35-37.05-89.21-37.05-50.53,0-94.09,29.78-114.15,72.73-5.81-1.3-11.84-2.05-18.04-2.05-38.78,0-71.21,26.85-79.93,62.94-6.28-2.76-13.2-4.32-20.49-4.32-25.96,0-47.34,19.43-50.5,44.53H399.53Z"/></g></g></g></svg>