<?xml version="1.0" encoding="UTF-8"?><svg xmlns="http://www.w3.org/2000/svg" viewBox="0 0 1920 140.1"><defs><style>.d{fill:#f15d5a;}.e{fill:#f9a463;}.f{fill:#fec97f;}</style></defs><g id="a"/><g id="b"><g id="c"><g><path class="e" d="M1920,75.64s-437.36,68.37-808.87,64.28C739.62,135.83,0,98.19,0,98.19V24.55s464.86,11.15,766.02,29.97c301.16,18.82,529.76,26.49,690.24-9.52C1616.73,9,1920,0,1920,0V75.64Z"/><path class="f" d="M1920,3.27s-136.2,18.77-202.88,38.73c-66.68,19.97-247.67,31.82-301.89,33.64-54.22,1.82-177.33,5.09-212.5,6.73-35.17,1.64-425.14-12.32-496.95-12.32-71.81,0-181.58,10.14-350.11-9.5C187.13,40.91,0,37.64,0,37.64v32.41s691.26,29.78,702.99,30.32c11.72,.55,320.95,4.91,332.67,4.91s417.67,1.09,423.53,0,250.6-32.83,255-35.23,205.81-44.41,205.81-44.41V3.27Z"/><path class="d" d="M1920,46.91s-192.62,46.91-305.47,54.55c-112.84,7.64-249.14,12.55-347.33,10.91-98.19-1.64-269.65,.55-397.15,2.18C742.56,116.19,0,84.01,0,84.01V46.91s198.85,17.36,346.87,23.14c148.02,5.78,255,22.14,523.19,22.14s301.89-8.18,454.31-3.82c152.41,4.36,388.36-32.18,466.03-54.01,77.67-21.82,129.61-23.46,129.61-23.46V46.91Z"/></g></g></g></svg>