<?xml version="1.0" encoding="UTF-8"?><svg xmlns="http://www.w3.org/2000/svg" viewBox="0 0 50.83 51.67"><defs><style>.d{fill:#9982a2;}.e{fill:#fff;}.f{fill:#70c9c1;stroke:#000;stroke-miterlimit:10;stroke-width:2px;}</style></defs><g id="a"/><g id="b"><g id="c"><g><g><circle class="d" cx="27.17" cy="28.01" r="23.66"/><path class="d" d="M15.19,28.81l.1-.16,6.15-9.63c.09-.14,.3-.13,.37,.03,1.03,2.3,1.92,5.17,1.5,6.95-.18,.73-.66,1.73-1.21,2.65-.07,.13-.15,.26-.23,.39-.04,.06-.1,.09-.18,.09h-6.33c-.17,0-.27-.18-.18-.32Z"/><path class="d" d="M42.62,30.6v1.52c0,.09-.05,.17-.13,.2-.48,.2-2.11,.95-2.79,1.9-1.73,2.41-3.05,5.85-6.01,5.85h-12.33c-4.37,0-7.91-3.55-7.91-7.94v-.14c0-.12,.09-.21,.21-.21h6.87c.14,0,.24,.13,.22,.26-.05,.45,.03,.9,.25,1.32,.41,.83,1.25,1.35,2.17,1.35h3.4v-2.66h-3.36c-.17,0-.27-.2-.17-.34,.04-.06,.08-.11,.12-.18,.32-.45,.77-1.15,1.23-1.95,.31-.54,.61-1.12,.85-1.69,.05-.1,.09-.21,.13-.32,.07-.18,.13-.36,.18-.53,.05-.15,.09-.3,.13-.44,.11-.49,.16-1.01,.16-1.55,0-.21,0-.43-.03-.64,0-.23-.04-.46-.07-.69-.02-.2-.06-.41-.09-.62-.05-.31-.12-.61-.19-.92l-.03-.12c-.06-.21-.11-.41-.18-.62-.19-.66-.41-1.31-.65-1.92-.09-.24-.18-.47-.28-.7-.14-.35-.29-.66-.42-.96-.07-.14-.13-.26-.18-.39-.07-.14-.13-.29-.2-.42-.05-.1-.1-.2-.14-.3l-.42-.77c-.06-.1,.04-.23,.15-.2l2.6,.7h.02l.34,.1,.38,.11,.14,.04v-1.55c0-.75,.6-1.35,1.34-1.35,.37,0,.7,.15,.95,.4,.24,.25,.39,.58,.39,.96v2.29l.28,.08s.04,.02,.06,.03c.07,.05,.17,.13,.29,.22,.1,.08,.2,.17,.33,.27,.25,.2,.55,.46,.88,.76,.09,.08,.17,.15,.25,.23,.42,.39,.9,.86,1.35,1.37,.13,.14,.25,.29,.38,.44,.13,.16,.26,.31,.38,.46,.15,.2,.32,.42,.46,.64,.07,.1,.15,.21,.21,.32,.18,.28,.35,.57,.5,.86,.07,.13,.13,.28,.19,.42,.17,.39,.31,.78,.4,1.17,.03,.09,.05,.18,.06,.26v.02c.03,.12,.04,.24,.05,.37,.04,.4,.02,.81-.07,1.21-.04,.17-.09,.34-.14,.51-.06,.17-.12,.34-.19,.5-.15,.34-.32,.68-.52,.99-.07,.12-.14,.24-.22,.36-.09,.12-.17,.24-.25,.35-.11,.15-.22,.3-.34,.44-.1,.14-.21,.29-.33,.41-.16,.19-.32,.37-.48,.55-.1,.11-.2,.23-.31,.34-.1,.12-.21,.22-.31,.32-.16,.16-.3,.29-.41,.39l-.27,.25s-.09,.05-.14,.05h-2.07v2.66h2.61c.58,0,1.14-.21,1.58-.59,.15-.13,.82-.71,1.61-1.58,.03-.03,.06-.05,.1-.06l7.2-2.08c.13-.04,.27,.06,.27,.2Z"/></g><g><path class="f" d="M48.32,24.66c0,13.07-10.59,23.66-23.66,23.66S1,37.72,1,24.66,11.59,1,24.66,1s23.66,10.59,23.66,23.66Z"/><path class="e" d="M12.67,25.45l.1-.16,6.15-9.63c.09-.14,.3-.13,.37,.03,1.03,2.3,1.92,5.17,1.5,6.95-.18,.73-.66,1.73-1.21,2.65-.07,.13-.15,.26-.23,.39-.04,.06-.1,.09-.18,.09h-6.33c-.17,0-.27-.18-.18-.32Z"/><path class="e" d="M40.1,27.24v1.52c0,.09-.05,.17-.13,.2-.48,.2-2.11,.95-2.79,1.9-1.73,2.41-3.05,5.85-6.01,5.85h-12.33c-4.37,0-7.91-3.55-7.91-7.94v-.14c0-.12,.09-.21,.21-.21h6.87c.14,0,.24,.13,.22,.26-.05,.45,.03,.9,.25,1.32,.41,.83,1.25,1.35,2.17,1.35h3.4v-2.66h-3.36c-.17,0-.27-.2-.17-.34,.04-.06,.08-.11,.12-.18,.32-.45,.77-1.15,1.23-1.95,.31-.54,.61-1.12,.85-1.69,.05-.1,.09-.21,.13-.32,.07-.18,.13-.36,.18-.53,.05-.15,.09-.3,.13-.44,.11-.49,.16-1.01,.16-1.55,0-.21,0-.43-.03-.64,0-.23-.04-.46-.07-.69-.02-.2-.06-.41-.09-.62-.05-.31-.12-.61-.19-.92l-.03-.12c-.06-.21-.11-.41-.18-.62-.19-.66-.41-1.31-.65-1.92-.09-.24-.18-.47-.28-.7-.14-.35-.29-.66-.42-.96-.07-.14-.13-.26-.18-.39-.07-.14-.13-.29-.2-.42-.05-.1-.1-.2-.14-.3l-.42-.77c-.06-.1,.04-.23,.15-.2l2.6,.7h.02l.34,.1,.38,.11,.14,.04v-1.55c0-.75,.6-1.35,1.34-1.35,.37,0,.7,.15,.95,.4,.24,.25,.39,.58,.39,.96v2.29l.28,.08s.04,.02,.06,.03c.07,.05,.17,.13,.29,.22,.1,.08,.2,.17,.33,.27,.25,.2,.55,.46,.88,.76,.09,.08,.17,.15,.25,.23,.42,.39,.9,.86,1.35,1.37,.13,.14,.25,.29,.38,.44,.13,.16,.26,.31,.38,.46,.15,.2,.32,.42,.46,.64,.07,.1,.15,.21,.21,.32,.18,.28,.35,.57,.5,.86,.07,.13,.13,.28,.19,.42,.17,.39,.31,.78,.4,1.17,.03,.09,.05,.18,.06,.26v.02c.03,.12,.04,.24,.05,.37,.04,.4,.02,.81-.07,1.21-.04,.17-.09,.34-.14,.51-.06,.17-.12,.34-.19,.5-.15,.34-.32,.68-.52,.99-.07,.12-.14,.24-.22,.36-.09,.12-.17,.24-.25,.35-.11,.15-.22,.3-.34,.44-.1,.14-.21,.29-.33,.41-.16,.19-.32,.37-.48,.55-.1,.11-.2,.23-.31,.34-.1,.12-.21,.22-.31,.32-.16,.16-.3,.29-.41,.39l-.27,.25s-.09,.05-.14,.05h-2.07v2.66h2.61c.58,0,1.14-.21,1.58-.59,.15-.13,.82-.71,1.61-1.58,.03-.03,.06-.05,.1-.06l7.2-2.08c.13-.04,.27,.06,.27,.2Z"/></g></g></g></g></svg>