<?xml version="1.0" encoding="UTF-8"?><svg xmlns="http://www.w3.org/2000/svg" xmlns:xlink="http://www.w3.org/1999/xlink" viewBox="0 0 879.44 666.3"><defs><style>.e{fill:#f5909d;}.f{fill:#a986b3;}.g{fill:#fee99a;}.h{fill:#d7c784;}.i{fill:#bf7785;}.j{fill:#6aabc3;}.k{fill:#decc84;}.l{clip-path:url(#d);}.m{fill:#bf9cc9;}.n{fill:none;}.o{fill:#61a9a2;}.p{fill:#f4919d;}.q{fill:#5fa49d;}.r{fill:#95daf8;}.s{fill:#70c9c1;}</style><clipPath id="d"><rect class="n" width="879.44" height="406.34"/></clipPath></defs><g id="a"/><g id="b"><g id="c"><g class="l"><g><g><path class="n" d="M252.78,125.49c-.22,.25-.44,.5-.67,.76,.23-.25,.46-.5,.69-.74l-.03-.02Z"/><path class="n" d="M761.57,209.05c7.42,16.67,13.05,33.99,16.97,51.99,.14,.55,.26,1.1,.4,1.64,17.11-19.59,30.98-39.09,40.66-58.21l-39.61,15.47-18.43-10.89Z"/><path class="n" d="M729.09,520.07c-1.03,1.42-2.06,2.83-3.11,4.23l.05,.05c1.04-1.45,2.07-2.89,3.06-4.28Z"/><path class="o" d="M302.84,473.81c5.47,8.68,18.67,10.23,36.84,7.39-14.02-10.5-27.95-21.33-41.71-32.5-.99,9.27,.21,17.71,4.87,25.11Z"/><g><path class="i" d="M588.12,627.88c-26.97-11.56-55.64-25.52-85.26-41.62-13.09-7.12-26.37-14.66-39.77-22.59-13.72,7.3-27.58,14.34-41.55,21.1,13.15,7.47,26.7,14.66,40.65,21.52,26.13,12.84,53.66,24.49,82.55,34.47,1.03,.36,2.07,.71,3.1,1.06,15.36-3.6,29.43-8.18,42.08-13.18-.6-.25-1.2-.51-1.8-.77Z"/><path class="i" d="M302.84,473.81c-4.67-7.39-5.86-15.84-4.87-25.11-14.28-11.58-28.38-23.51-42.22-35.75-30.61-27.07-59.95-55.69-87.14-85.54-.09-.1-.19-.2-.28-.31-.55,10.78-.83,26.54,.59,43.91,.47,.56,.95,1.12,1.43,1.69,28.83,33.97,69.62,77.74,121.65,121.46,20.23,17,42.16,33.99,65.75,50.39,13.6-6.46,27.73-13.36,42.23-20.65-20.14-13.47-40.31-27.74-60.29-42.7-18.17,2.84-31.37,1.29-36.84-7.39Z"/></g><path class="h" d="M399.98,523.9c-14.5,7.29-28.63,14.19-42.23,20.65,20.07,13.96,41.34,27.48,63.79,40.23,13.97-6.76,27.84-13.8,41.55-21.1-20.84-12.34-41.96-25.62-63.12-39.78Z"/><g><path class="g" d="M871.5,167.48c-20.14-67.19-150.15-22.99-150.15-22.99,0,0,.3,.45,.82,1.21,1.31,1.95,4.08,6.06,7.29,10.83,.9,1.33,1.83,2.71,2.77,4.11l.13-.03c.36-.09,.72-.18,1.09-.27,22.52-5.62,60.42-12.93,80.23-4.63,29.34,12.29,5.91,48.76,5.91,48.76-9.69,19.12-23.55,38.62-40.66,58.21l-.04,.05c-20.52,23.48-45.71,47.09-73.98,70.33-30.32,24.93-64.19,49.43-99.64,72.89-48.02,31.77-98.94,61.63-147.9,88.05,19.45,14.05,39.01,27.47,58.46,40,48.83-28.98,95.1-60.64,137.16-93,34.19-26.3,65.59-53.07,93.32-79.24,13.99-13.2,27.04-26.25,39.04-39.01,.77-.82,1.55-1.64,2.31-2.45,60.26-64.61,93.22-121.51,83.84-152.81Z"/><path class="g" d="M340.58,552.6c-2.32,1.07-4.62,2.13-6.9,3.18-18.49,8.47-35.71,15.98-51.25,22.4-30.19,12.47-53.98,20.82-68.24,24.06h0c-33.01,10.32-73.28,7.41-70.51-21.53,2.45-25.52,46.8-89.54,57.26-104.34,.25-.35,.48-.68,.69-.97-5.68-11.05-10.02-19.82-10.71-21.23l-.11-.22s-261.36,279.66,57.82,195.99c32.3-8.47,64.72-19.23,96.87-31.83,2.16-.85,4.31-1.7,6.47-2.56,15.32-6.12,30.57-12.65,45.71-19.55,7.99-3.64,15.94-7.38,23.86-11.21-22.45-12.75-43.72-26.27-63.79-40.23-5.82,2.77-11.55,5.45-17.17,8.05Z"/></g><path class="j" d="M222.85,162.6c5.07-7.38,10.45-14.53,16.13-21.42-45.72-12.59-112.71-27.28-122.25-8.47-5.07,22.3,2.3,40.14,10.72,52.25-31.25-59.4,87.86-21.79,95.4-22.36Z"/><path class="j" d="M223.21,162.51c4.58-6.73,10.42-14.23,16.15-21.22-.13-.04-.26-.07-.38-.11-5.68,6.89-11.05,14.05-16.13,21.42,.17-.01,.31-.04,.36-.1Z"/><g><path class="m" d="M778.89,262.72c-.12-.56-.24-1.13-.36-1.69-3.92-18-9.55-35.31-16.97-51.99-4.26-9.57-9.1-18.94-14.56-28.09-.31,.09-.61,.18-.93,.27,.02,.03-1.98-2.95-4.86-7.22-2.58-3.83-5.85-8.68-8.99-13.36-.94-1.4-1.87-2.78-2.77-4.11-3.22-4.78-5.98-8.89-7.29-10.83-6.43-7.83-13.37-15.5-20.84-23-.04,.03-.09,.06-.13,.09-51.04,35.4-125.49,58.67-209.22,61.46-32.3,82.16-73.71,125.43,53.2,128.41,63.65,1.5,119.69,4.11,159.74,20.38,28.27-23.24,53.46-46.84,73.98-70.33Z"/><path class="m" d="M785.36,322.74c-12,12.76-25.05,25.8-39.04,39.01,8.39,10.01,14.6,22.15,18.32,36.86,3.51,13.86,4.82,30,3.65,48.83,0,.02,0,.05,0,.07,.02-.07,.03-.13,.05-.2,6.14-23.45,10.67-46.04,13.52-67.83,2.55-19.56,3.74-38.46,3.5-56.74Z"/></g><path class="k" d="M819.6,204.47s23.43-36.47-5.91-48.76c-19.82-8.3-57.72-.99-80.23,4.63,4.88,6.75,9.39,13.62,13.55,20.62,64.79-18.86,79.53,2.69,72.59,23.51Z"/><path class="k" d="M746.08,181.22c.31-.09,.62-.18,.93-.27-4.16-6.99-8.68-13.86-13.55-20.62-.37,.09-.73,.18-1.09,.27,3.07,4.38,6.02,8.85,8.86,13.39,2.88,4.27,4.88,7.25,4.86,7.22Z"/><path class="j" d="M721.34,620.17c13.36,.42,36.25-12.31,35.06-40.85-.86-20.63-19.89-43.74-30.38-54.97-6.8,9.49-13.99,19.53-13.94,19.47,37.59,50.11,28.06,72.38,9.26,76.36Z"/><g><path class="s" d="M787.66,320.29c-.76,.82-1.54,1.64-2.31,2.45,.24,18.28-.95,37.19-3.5,56.74-2.84,21.79-7.38,44.39-13.52,67.83,8.69-23.06,14.71-47.42,17.68-72.73,1.41-11.99,2.16-24.18,2.16-36.55,0-5.96-.19-11.88-.52-17.76Z"/><path class="s" d="M230.52,496.68c-4.11-4.18-8.11-8.55-12-13.08-12.62-14.73-24.14-31.27-34.85-49.29,2.2,6.72,4.61,13.35,7.25,19.86,.7,1.41,5.03,10.19,10.71,21.23,4.97,9.68,10.97,21.08,16.44,30.78,.02,.04,.02,.11,0,.19,3.34,5.15,6.83,10.19,10.45,15.12,15.52,21.09,33.64,40.15,53.89,56.69,15.54-6.42,32.76-13.93,51.25-22.4-4.2-2.1-9.5-4.11-16.19-6.05-34.31-9.92-62.66-28.3-86.97-53.05Z"/><path class="s" d="M545.17,312.67c-126.9-2.99-85.49-46.25-53.2-128.41-5.62,.19-11.27,.29-16.97,.29-79.54,0-151.77-18.47-205.07-48.53-5.96-3.36-11.66-6.87-17.13-10.51-.23,.25-.46,.5-.69,.74-3.73,4.26-8.2,9.48-12.76,15.04-5.73,6.99-11.57,14.49-16.15,21.22-.05,.06-.19,.08-.36,.1-8.88,12.9-16.82,26.5-23.69,40.71-7.34,15.18-13.46,31.06-18.28,47.5,10.67,11.42,22.67,23.81,35.79,36.91,8.23-3.68,17.04-7.26,26-10.35,37.29-12.86,77.16-17.09,88.68,16.7,10.4,30.52,.68,61.66-10.94,90.36,29.09,25.41,60.04,51.09,91.79,75.71,66.11-23.55,145.8-56.91,193.08-54.21,35.45-23.46,69.32-47.96,99.64-72.89-40.05-16.28-96.1-18.88-159.74-20.38Z"/><path class="s" d="M778.93,262.68c-.14-.55-.26-1.1-.4-1.64,.12,.56,.24,1.12,.36,1.69l.04-.05Z"/><path class="s" d="M764.65,398.61c-3.73-14.71-9.93-26.85-18.32-36.86-27.72,26.17-59.13,52.93-93.32,79.24,6.34,13.23,10.2,29,12.4,45.2,6.53,48.02-1.34,99.78-1.36,99.92,12.74-9.55,24.71-20.08,35.82-31.44,9.34-9.55,18.07-19.69,26.12-30.37,1.05-1.4,2.08-2.81,3.11-4.23,1.04-1.45,2.04-2.85,2.97-4.15,14.78-21.05,27.01-44.03,36.23-68.47,1.17-18.83-.14-34.97-3.65-48.83Z"/><path class="s" d="M345.5,618.1c4.04,1.92,8.13,3.77,12.27,5.52-2.43-2.76-4.32-5.46-5.8-8.08-2.15,.86-4.31,1.72-6.47,2.56Z"/></g><g><path class="e" d="M462.18,606.29c-13.95-6.86-27.5-14.05-40.65-21.52-7.92,3.83-15.87,7.57-23.86,11.21-15.14,6.9-30.39,13.43-45.71,19.55,1.48,2.63,3.37,5.32,5.8,8.08h0c12.2,5.16,24.16,9.44,35.87,12.93,45.08,13.46,86.29,15.27,122.22,10.93,11.18-1.35,21.86-3.29,31.98-5.66-1.04-.35-2.07-.7-3.1-1.06-28.89-9.98-56.41-21.63-82.55-34.47Z"/><path class="e" d="M292,494.16c-52.03-43.72-92.82-87.49-121.65-121.46-.48-.56-.96-1.13-1.43-1.69,1.69,20.69,5.79,43.66,14.71,63.21,.02,.03,.03,.05,.05,.08,10.71,18.02,22.23,34.56,34.85,49.29,3.89,4.54,7.89,8.9,12,13.08,24.32,24.75,52.66,43.14,86.97,53.05,6.69,1.93,11.99,3.95,16.19,6.05,2.28-1.05,4.58-2.1,6.9-3.18,5.62-2.6,11.34-5.28,17.17-8.05-23.59-16.4-45.52-33.39-65.75-50.39Z"/><path class="e" d="M320.41,384.44c11.63-28.7,21.35-59.84,10.94-90.36-11.52-33.79-51.39-29.56-88.68-16.7-8.96,3.09-17.77,6.67-26,10.35,7.96,7.96,16.34,16.17,25.08,24.59,23.83,22.96,50.37,47.4,78.66,72.11Z"/><path class="e" d="M605.28,405.93c-47.28-2.7-126.97,30.65-193.08,54.21,14.92,11.56,30.01,22.89,45.18,33.85,48.96-26.42,99.88-56.28,147.9-88.05Z"/><path class="e" d="M665.4,486.19c-2.2-16.21-6.06-31.98-12.4-45.2-42.06,32.36-88.33,64.02-137.16,93,13.14,8.46,26.23,16.5,39.2,24.04,29.98,17.43,59.31,32.15,87.12,43.06,.3,.12,.59,.23,.89,.34,13.63-8.82,20.99-15.31,20.99-15.31h0c.02-.15,7.89-51.91,1.36-99.93Z"/></g><path class="h" d="M218.08,506.36c-6.25-9.64-11.97-19.66-17.14-30-10.47,14.8-54.81,78.83-57.26,104.34-2.78,28.94,37.5,31.85,70.51,21.53h0c-1.14,.26-2.24,.49-3.26,.69-76.43,14.52,6.41-90.79,7.15-96.56Z"/><path class="h" d="M218.07,506.17c-5.47-9.7-11.47-21.11-16.44-30.78-.21,.3-.44,.62-.69,.97,5.17,10.34,10.89,20.35,17.14,30,.01-.08,.01-.15,0-.19Z"/><path class="q" d="M277.41,113.87c-1.78-1.42-3.52-2.89-5.19-4.44-.51-.47-1.02-.95-1.54-1.42-6.19,5.59-12.15,11.43-17.87,17.5,5.47,3.64,11.18,7.15,17.13,10.51,2.57-8.11,5.1-15.52,7.47-22.15Z"/><path class="q" d="M491.98,184.25c1.22-3.11,2.43-6.27,3.62-9.49,1.23-3.33,2.1-6.56,2.66-9.68-9.81,.32-19.63,.27-29.44,.25-.39,0-.78,0-1.17,0-4.4,.08-8.78-.31-13.18-.41-3.93-.09-7.87-.42-11.81-.63-4.15-.22-8.31-.54-12.44-1.01-4.57-.52-9.15-.94-13.72-1.52-3.79-.48-7.59-.96-11.38-1.47-4.34-.59-8.66-1.3-12.97-2.07-4.48-.79-8.94-1.68-13.39-2.58-7.18-1.46-14.3-3.18-21.38-5.07-7.36-1.97-14.65-4.15-21.84-6.66-6.4-2.24-12.76-4.61-18.97-7.35-3.92-1.73-7.85-3.45-11.67-5.38-8.8-4.46-17.27-9.47-25.14-15.44-.8-.6-1.57-1.24-2.35-1.87-2.37,6.63-4.9,14.04-7.47,22.15,53.3,30.06,125.53,48.53,205.07,48.53,5.7,0,11.35-.1,16.97-.29Z"/><path class="f" d="M692.63,114.24c-2.22-2.12-4.46-4.21-6.74-6.27-.02,.02-.04,.03-.06,.05,2.31,2.06,4.58,4.13,6.8,6.21Z"/><path class="f" d="M701.2,122.79s.09-.06,.13-.09c-2.83-2.84-5.73-5.66-8.71-8.46,2.92,2.79,5.77,5.65,8.57,8.55Z"/><path class="f" d="M674.75,117.21c-5.55,4.02-11.35,7.63-17.38,10.9-9.16,4.98-18.64,9.22-28.4,12.88-10.42,3.91-21.01,7.23-31.77,10.07-7.84,2.07-15.74,3.84-23.68,5.47-5.75,1.18-11.56,2.14-17.36,3.07-4.76,.77-9.54,1.4-14.32,2-3.41,.43-6.84,.73-10.26,1.07-4.3,.44-8.6,.93-12.91,1.26-1.94,.15-3.88,.25-5.82,.38-3.55,.23-7.1,.26-10.64,.65-.22,.02-.45,0-.67,.02-1.1,.05-2.2,.06-3.3,.1-.56,3.12-1.44,6.35-2.66,9.68-1.19,3.22-2.39,6.38-3.62,9.49,83.74-2.79,158.19-26.06,209.22-61.46-2.8-2.9-5.66-5.76-8.57-8.55-2.22-2.08-4.49-4.15-6.8-6.21-3.47,3.31-7.17,6.35-11.08,9.18Z"/><path class="r" d="M737.86,507.81s-2.43,3.4-5.8,8.1c-.93,1.3-1.93,2.7-2.97,4.15-1,1.39-2.02,2.83-3.06,4.28,10.49,11.23,29.52,34.34,30.38,54.97,1.19,28.54-21.7,41.27-35.06,40.85-1.72,.36-3.52,.58-5.37,.64-22.51-2.54-47.06-9.31-72.92-19.38-.3-.12-.59-.23-.89-.34-27.81-10.91-57.14-25.63-87.12-43.06-12.97-7.54-26.06-15.58-39.2-24.04-19.45-12.52-39.01-25.95-58.46-40-15.17-10.95-30.26-22.28-45.18-33.85-31.75-24.62-62.7-50.3-91.79-75.71-28.29-24.71-54.83-49.15-78.66-72.11-8.74-8.42-17.12-16.64-25.08-24.59-13.12-13.11-25.12-25.5-35.79-36.91-25.43-27.2-43.33-48.83-50.83-61.21-.98-1.61-1.83-3.15-2.61-4.63-8.41-12.11-15.79-29.95-10.72-52.25,9.54-18.81,76.52-4.12,122.25,8.47,.13,.04,.26,.07,.38,.11,4.55-5.55,9.03-10.78,12.76-15.04,.22-.26,.45-.51,.67-.76,5.15-5.87,8.7-9.72,8.7-9.72,0,0-15.74-6.45-38.76-14.07C136.81,73.27-50.55,28.52,99.18,241.34c20.73,29.47,44.02,58.14,69.16,85.76,.09,.1,.19,.2,.28,.31,27.19,29.85,56.53,58.47,87.14,85.54,13.84,12.24,27.94,24.17,42.22,35.75,13.77,11.17,27.7,22,41.71,32.5,19.99,14.97,40.16,29.23,60.29,42.7,21.16,14.16,42.28,27.44,63.12,39.78,13.4,7.93,26.67,15.47,39.77,22.59,29.62,16.1,58.29,30.06,85.26,41.62,.6,.26,1.2,.52,1.8,.77,84.57,36,152.11,48.12,178.84,27.89,55.93-42.34-30.89-148.72-30.89-148.72Z"/></g><path class="p" d="M391.83,37.47c-.52,.15-1.04,.3-1.55,.45,.02,.13,.04,.25,.06,.38,.5-.28,1-.55,1.49-.82Z"/></g></g></g></g></svg>