<?xml version="1.0" encoding="UTF-8"?><svg xmlns="http://www.w3.org/2000/svg" viewBox="0 0 1484.36 508.76"><defs><style>.d{fill:#fff;}</style></defs><g id="a"/><g id="b"><g id="c"><g><g><path class="d" d="M702.93,168.83s13.4-3.19,14.04-14.68c0,6.26,2.81,14.17,12.26,15.45-4.6,0-12.38,6.38-13.15,12.38,0-5.62-6.26-13.28-13.15-13.15Z"/><path class="d" d="M863.94,14.68s13.4-3.19,14.04-14.68c0,6.26,2.81,14.17,12.26,15.45-4.6,0-12.38,6.38-13.15,12.38,0-5.62-6.26-13.28-13.15-13.15Z"/><path class="d" d="M1203.07,163.14s13.4-3.19,14.04-14.68c0,6.26,2.81,14.17,12.26,15.45-4.6,0-12.38,6.38-13.15,12.38,0-5.62-6.26-13.28-13.15-13.15Z"/><path class="d" d="M1455,81.65s13.4-3.19,14.04-14.68c0,6.26,2.81,14.17,12.26,15.45-4.6,0-12.38,6.38-13.15,12.38,0-5.62-6.26-13.28-13.15-13.15Z"/><path class="d" d="M0,177.57s13.4-3.19,14.04-14.68c0,6.26,2.81,14.17,12.26,15.45-4.6,0-12.38,6.38-13.15,12.38,0-5.62-6.26-13.28-13.15-13.15Z"/><circle class="d" cx="812.34" cy="72.26" r="3.06"/><circle class="d" cx="90.35" cy="54.91" r="3.06"/><circle class="d" cx="1254.81" cy="17.13" r="3.06"/><circle class="d" cx="1481.3" cy="133.83" r="3.06"/><circle class="d" cx="1099.57" cy="82.69" r="3.06"/><path class="d" d="M474.14,140.32s13.4-3.19,14.04-14.68c0,6.26,2.81,14.17,12.26,15.45-4.6,0-12.38,6.38-13.15,12.38,0-5.62-6.26-13.28-13.15-13.15Z"/><circle class="d" cx="336.84" cy="68.71" r="3.06"/><circle class="d" cx="181.61" cy="134.28" r="3.06"/><circle class="d" cx="632.85" cy="72.3" r="3.06"/></g><g><path class="d" d="M781.43,339.93s-13.4,3.19-14.04,14.68c0-6.26-2.81-14.17-12.26-15.45,4.6,0,12.38-6.38,13.15-12.38,0,5.62,6.26,13.28,13.15,13.15Z"/><path class="d" d="M620.43,494.08s-13.4,3.19-14.04,14.68c0-6.26-2.81-14.17-12.26-15.45,4.6,0,12.38-6.38,13.15-12.38,0,5.62,6.26,13.28,13.15,13.15Z"/><path class="d" d="M281.29,345.62s-13.4,3.19-14.04,14.68c0-6.26-2.81-14.17-12.26-15.45,4.6,0,12.38-6.38,13.15-12.38,0,5.62,6.26,13.28,13.15,13.15Z"/><path class="d" d="M29.36,427.11s-13.4,3.19-14.04,14.68c0-6.26-2.81-14.17-12.26-15.45,4.6,0,12.38-6.38,13.15-12.38,0,5.62,6.26,13.28,13.15,13.15Z"/><path class="d" d="M1484.36,331.19s-13.4,3.19-14.04,14.68c0-6.26-2.81-14.17-12.26-15.45,4.6,0,12.38-6.38,13.15-12.38,0,5.62,6.26,13.28,13.15,13.15Z"/><circle class="d" cx="672.02" cy="436.5" r="3.06"/><circle class="d" cx="1394.01" cy="453.86" r="3.06"/><circle class="d" cx="229.56" cy="491.64" r="3.06"/><circle class="d" cx="3.06" cy="374.93" r="3.06"/><circle class="d" cx="384.79" cy="426.07" r="3.06"/><path class="d" d="M1010.22,368.44s-13.4,3.19-14.04,14.68c0-6.26-2.81-14.17-12.26-15.45,4.6,0,12.38-6.38,13.15-12.38,0,5.62,6.26,13.28,13.15,13.15Z"/><circle class="d" cx="1147.52" cy="440.05" r="3.06"/><circle class="d" cx="1302.75" cy="374.49" r="3.06"/><circle class="d" cx="851.51" cy="436.46" r="3.06"/></g></g></g></g></svg>