<?xml version="1.0" encoding="UTF-8"?><svg xmlns="http://www.w3.org/2000/svg" viewBox="0 0 1673.4 198.14"><defs><style>.d{fill:#fff;}</style></defs><g id="a"/><g id="b"><g id="c"><g><path class="d" d="M702.93,176.26s13.4-3.19,14.04-14.68c0,6.26,2.81,14.17,12.26,15.45-4.6,0-12.38,6.38-13.15,12.38,0-5.62-6.26-13.28-13.15-13.15Z"/><path class="d" d="M863.94,50.79s13.4-3.19,14.04-14.68c0,6.26,2.81,14.17,12.26,15.45-4.6,0-12.38,6.38-13.15,12.38,0-5.62-6.26-13.28-13.15-13.15Z"/><path class="d" d="M1392.11,96.17s13.4-3.19,14.04-14.68c0,6.26,2.81,14.17,12.26,15.45-4.6,0-12.38,6.38-13.15,12.38,0-5.62-6.26-13.28-13.15-13.15Z"/><path class="d" d="M1644.04,14.68s13.4-3.19,14.04-14.68c0,6.26,2.81,14.17,12.26,15.45-4.6,0-12.38,6.38-13.15,12.38,0-5.62-6.26-13.28-13.15-13.15Z"/><path class="d" d="M0,184.99s13.4-3.19,14.04-14.68c0,6.26,2.81,14.17,12.26,15.45-4.6,0-12.38,6.38-13.15,12.38,0-5.62-6.26-13.28-13.15-13.15Z"/><circle class="d" cx="812.34" cy="79.69" r="3.06"/><circle class="d" cx="90.35" cy="62.33" r="3.06"/><circle class="d" cx="1254.81" cy="24.55" r="3.06"/><circle class="d" cx="1670.34" cy="66.86" r="3.06"/><circle class="d" cx="1099.57" cy="90.12" r="3.06"/><circle class="d" cx="632.85" cy="79.73" r="3.06"/></g></g></g></svg>