<?xml version="1.0" encoding="UTF-8"?><svg xmlns="http://www.w3.org/2000/svg" viewBox="0 0 1920 805.65"><defs><style>.d{fill:#fff;}.e{fill:#6c86c3;}.f{opacity:.2;}</style></defs><g id="a"/><g id="b"><g id="c"><g><rect class="d" y="201.41" width="1920" height="419.64"/><g><g><g><path class="d" d="M1920,212.31c-2.06-36.66-32.36-65.78-69.54-65.78-10.37,0-20.17,2.32-29.01,6.38-15.43-68.27-76.41-119.27-149.35-119.27s-136.54,53.2-150.29,123.67c-10.76-6.79-23.47-10.78-37.13-10.78s-27.1,4.19-38.04,11.33c-12.24-26.36-38.21-44.95-68.76-46.64C1359.63,47.03,1300.62,0,1230.58,0s-129.68,47.53-147.58,112.24c-3.2-.32-6.45-.49-9.73-.49-41.5,0-76.7,26.56-89.79,63.57-12.79-15.19-31.93-24.87-53.35-24.87-35.85,0-65.34,27.06-69.26,61.86H1920Z"/><g class="f"><path class="e" d="M1318.41,80.3c-2.16,0-4.09-1.53-4.51-3.73-2.74-14.36-15.78-24.24-30.4-22.99-3.64,.31-7.15,1.32-10.44,2.99-1.16,.59-2.5,.66-3.7,.2-1.21-.46-2.17-1.4-2.65-2.6-5.7-14.4-20.45-23.53-35.89-22.2-2.66,.23-5.4,.81-8.14,1.71-2.4,.8-5.01-.5-5.81-2.91-.8-2.41,.51-5,2.91-5.8,3.42-1.13,6.87-1.86,10.25-2.15,17.91-1.57,35,8.05,43.24,23.67,3.05-1.09,6.21-1.79,9.45-2.07,19.26-1.64,36.57,11.42,40.2,30.41,.48,2.49-1.16,4.9-3.65,5.37-.29,.05-.58,.08-.87,.08Z"/></g></g><g><path class="d" d="M399.53,212.31c.38-.91,.81-1.8,1.17-2.72,.22,.92,.52,1.81,.77,2.72H985.52c-2.04-30.28-27.19-54.23-57.98-54.23-10.08,0-19.56,2.57-27.83,7.08-10.32-37.64-44.69-65.34-85.61-65.34-16.18,0-31.3,4.39-44.37,11.95-17.31-52.03-66.36-89.56-124.2-89.56s-103.59,35.05-122.35,84.36c-10.85-4.66-22.79-7.27-35.35-7.27-9.9,0-19.39,1.67-28.29,4.63-10.82-21.01-32.68-35.4-57.94-35.4-10.54,0-20.45,2.56-29.26,6.99-22.8-22.89-54.35-37.05-89.21-37.05-50.53,0-94.09,29.78-114.15,72.73-5.81-1.3-11.84-2.05-18.04-2.05-38.78,0-71.21,26.85-79.93,62.94-6.28-2.76-13.2-4.32-20.49-4.32-25.96,0-47.34,19.43-50.5,44.53H399.53Z"/><g class="f"><path class="e" d="M720.9,106.06c-2.01,0-3.85-1.33-4.42-3.36-2.77-9.92-8.98-18.59-17.49-24.41-14.15-9.69-32.82-10.22-47.57-1.34-1.82,1.09-4.15,.8-5.63-.7-1.42-1.44-2.94-2.71-4.51-3.78-6.83-4.67-15.06-6.41-23.19-4.89-8.13,1.52-15.18,6.12-19.85,12.94-1.43,2.09-4.29,2.63-6.38,1.2-2.09-1.43-2.63-4.29-1.2-6.38,12.51-18.27,37.54-22.95,55.81-10.45,1.11,.76,2.2,1.59,3.25,2.49,17.29-8.92,38.3-7.73,54.45,3.33,10.29,7.04,17.8,17.53,21.15,29.52,.68,2.44-.75,4.98-3.19,5.66-.41,.11-.83,.17-1.24,.17Z"/></g></g></g><g><g><path class="d" d="M0,593.34c2.06,36.66,32.36,65.78,69.54,65.78,10.37,0,20.17-2.32,29.01-6.38,15.43,68.27,76.41,119.27,149.35,119.27s136.54-53.2,150.29-123.67c10.76,6.79,23.47,10.78,37.13,10.78s27.1-4.19,38.04-11.33c12.24,26.36,38.21,44.95,68.76,46.64,18.24,64.19,77.26,111.22,147.3,111.22s129.68-47.53,147.58-112.24c3.2,.32,6.45,.49,9.73,.49,41.5,0,76.7-26.56,89.79-63.57,12.79,15.19,31.93,24.87,53.35,24.87,35.85,0,65.34-27.06,69.26-61.86H0Z"/><g class="f"><path class="e" d="M601.59,725.35c2.16,0,4.09,1.53,4.51,3.73,2.74,14.36,15.78,24.24,30.4,22.99,3.64-.31,7.15-1.32,10.44-2.99,1.16-.59,2.5-.66,3.7-.2,1.21,.46,2.17,1.4,2.65,2.6,5.7,14.4,20.45,23.53,35.89,22.2,2.66-.23,5.4-.81,8.14-1.71,2.4-.8,5.01,.5,5.81,2.91,.8,2.41-.51,5-2.91,5.8-3.42,1.13-6.87,1.86-10.25,2.15-17.91,1.57-35-8.05-43.24-23.67-3.05,1.09-6.21,1.79-9.45,2.07-19.26,1.64-36.57-11.42-40.2-30.41-.48-2.49,1.16-4.9,3.65-5.37,.29-.05,.58-.08,.87-.08Z"/></g></g><g><path class="d" d="M1520.47,593.34c-.38,.91-.81,1.8-1.17,2.72-.22-.92-.52-1.81-.77-2.72H934.48c2.04,30.28,27.19,54.23,57.98,54.23,10.08,0,19.56-2.57,27.83-7.08,10.32,37.64,44.69,65.34,85.61,65.34,16.18,0,31.3-4.39,44.37-11.95,17.31,52.03,66.36,89.56,124.2,89.56s103.59-35.05,122.35-84.36c10.85,4.66,22.79,7.27,35.35,7.27,9.9,0,19.39-1.67,28.29-4.63,10.82,21.01,32.68,35.4,57.94,35.4,10.54,0,20.45-2.56,29.26-6.99,22.8,22.89,54.35,37.05,89.21,37.05,50.53,0,94.09-29.78,114.15-72.73,5.81,1.3,11.84,2.05,18.04,2.05,38.78,0,71.21-26.85,79.93-62.94,6.28,2.76,13.2,4.32,20.49,4.32,25.96,0,47.34-19.43,50.5-44.53h-399.53Z"/><g class="f"><path class="e" d="M1199.1,699.58c2.01,0,3.85,1.33,4.42,3.36,2.77,9.92,8.98,18.59,17.49,24.41,14.15,9.69,32.82,10.22,47.57,1.34,1.82-1.09,4.15-.8,5.63,.7,1.42,1.44,2.94,2.71,4.51,3.78,6.83,4.67,15.06,6.41,23.19,4.89,8.13-1.52,15.18-6.12,19.85-12.94,1.43-2.09,4.29-2.63,6.38-1.2,2.09,1.43,2.63,4.29,1.2,6.38-12.51,18.27-37.54,22.95-55.81,10.45-1.11-.76-2.2-1.59-3.25-2.49-17.29,8.92-38.3,7.73-54.45-3.33-10.29-7.04-17.8-17.53-21.15-29.52-.68-2.44,.75-4.98,3.19-5.66,.41-.11,.83-.17,1.24-.17Z"/></g></g></g></g></g></g></g></svg>