<?xml version="1.0" encoding="UTF-8"?><svg xmlns="http://www.w3.org/2000/svg" viewBox="0 0 357.95 53.95"><defs><style>.d{fill:#7ebfdb;}.e{fill:#c9a5ce;stroke:#0f0f0f;stroke-miterlimit:10;stroke-width:1.31px;}</style></defs><g id="a"/><g id="b"><g id="c"><g><g><path class="d" d="M39.45,13.52c-.1,.9-.2,1.79-.28,2.67-.09,.88-.2,1.77-.34,2.67-.35,2.59-.74,5.14-1.19,7.66-.45,2.52-.88,5.06-1.29,7.61-.45,2.59-.93,5.16-1.45,7.71-.52,2.55-1.09,5.13-1.71,7.71-.07,.24-.13,.47-.18,.7-.05,.22-.16,.44-.34,.65-.17,.21-.37,.37-.6,.49-.23,.12-.46,.23-.7,.34-1.1,.38-2.24,.53-3.42,.47-.28-.04-.56-.08-.85-.13s-.58-.16-.85-.34c-.52-.28-.92-.7-1.22-1.27-.29-.57-.53-1.15-.7-1.73-.24-.76-.47-1.52-.67-2.28-.21-.76-.41-1.54-.62-2.33-.04-.1-.11-.36-.23-.78-.12-.41-.24-.85-.36-1.29-.12-.45-.23-.86-.31-1.24-.09-.38-.1-.6-.03-.67-.31,.35-.54,.75-.7,1.22-.16,.47-.29,.95-.39,1.45-.1,.5-.23,.99-.39,1.48-.16,.48-.39,.91-.7,1.29-.41,.48-.97,.72-1.66,.72-.55-.04-1.09-.04-1.61,0-.52,.03-1.04,.07-1.55,.1-1.31,.03-2.38-.62-3.21-1.97-.07-.1-.15-.22-.23-.34-.09-.12-.18-.23-.29-.34-.28-.28-.47-.67-.57-1.19-.45-1.45-.88-2.89-1.29-4.32-.41-1.43-.85-2.87-1.29-4.32-.07-.34-.15-.68-.23-1.01-.09-.33-.16-.65-.23-.96-.28-1.04-.53-2.07-.75-3.11-.22-1.04-.47-2.05-.75-3.05-.35-1.17-.63-2.35-.85-3.52-.22-1.17-.42-2.36-.6-3.57-.07-.24-.12-.47-.16-.7-.03-.22-.09-.44-.16-.65-.28-.83-.49-1.66-.65-2.51-.16-.85-.3-1.72-.44-2.61-.1-.76-.21-1.5-.31-2.23s-.22-1.47-.36-2.23c-.07-.55-.1-1.11-.08-1.68,.02-.57,.28-1.04,.8-1.42,.45-.31,1.05-.5,1.81-.57,.52-.07,1.09-.12,1.71-.16,.62-.03,1.24-.02,1.86,.05,.62,.07,1.21,.21,1.76,.41,.55,.21,1.02,.52,1.4,.93,.59,.62,.94,1.34,1.06,2.15,.12,.81,.28,1.61,.49,2.41,.28,1.04,.52,2.07,.72,3.11,.21,1.04,.4,2.09,.57,3.16l1.24,7.61c.24-1.28,.47-2.54,.7-3.78,.22-1.24,.46-2.48,.7-3.73,.07-.48,.16-1.04,.26-1.68,.1-.64,.29-1.15,.57-1.53,.17-.24,.42-.44,.75-.6,.33-.16,.68-.28,1.06-.36,.38-.09,.76-.12,1.14-.1,.38,.02,.71,.04,.98,.08,.28,.07,.55,.07,.83,0,.59-.1,1.1-.08,1.53,.08s.79,.51,1.06,1.06c.17,.31,.28,.63,.34,.96,.05,.33,.11,.67,.18,1.01,.28,1.86,.53,3.69,.78,5.49,.24,1.79,.5,3.62,.78,5.49,0-1.76,.12-3.53,.36-5.31,.24-1.78,.45-3.55,.62-5.31,.07-.69,.15-1.43,.23-2.23,.09-.79,.2-1.59,.34-2.38,.14-.79,.31-1.56,.52-2.3,.21-.74,.48-1.42,.83-2.04,.28-.52,.62-.98,1.04-1.37,.41-.4,.9-.68,1.45-.85,.41-.14,.91-.21,1.5-.21,.52,0,1.02,.03,1.5,.1,.48,.07,.97,.21,1.45,.41,.48,.21,.91,.47,1.29,.8,.38,.33,.66,.73,.83,1.22,.17,.41,.27,.85,.28,1.29,.02,.45,0,.9-.03,1.35-.07,.69-.16,1.39-.26,2.1-.1,.71-.19,1.41-.26,2.1Z"/><path class="d" d="M65.5,6.17c.03,1.04,.04,2.07,.03,3.11-.02,1.04-.06,2.07-.13,3.11-.07,.59-.09,1.17-.05,1.76,.03,.59,.05,1.17,.05,1.76,0,1.42,0,2.82-.03,4.22-.02,1.4-.03,2.8-.03,4.22v6.21c-.03,.48-.07,.98-.1,1.5s-.07,1.04-.1,1.55c-.04,.59-.07,1.19-.1,1.81-.04,.62-.07,1.23-.1,1.81-.07,1.14-.12,2.28-.16,3.42-.04,1.14-.09,2.3-.16,3.47-.07,.59-.28,1.09-.62,1.5-.35,.41-.81,.71-1.4,.88-1.24,.31-2.47,.26-3.68-.16-.79-.28-1.38-.68-1.76-1.22-.38-.53-.6-1.23-.67-2.1-.17-1.66-.28-3.32-.31-5-.04-1.67-.09-3.36-.16-5.05,0-.21-.02-.4-.05-.57-.73-.03-1.45-.07-2.17-.1-.72-.03-1.47-.07-2.23-.1-.14,.69-.21,1.36-.21,2.02s.03,1.33,.1,2.02c.03,.31,.04,.62,.03,.93-.02,.31-.03,.62-.03,.93-.04,.52-.08,1.03-.13,1.53-.05,.5-.08,1.01-.08,1.53,.03,.79-.05,1.57-.26,2.33-.21,.76-.41,1.52-.62,2.28-.07,.28-.21,.49-.41,.65-.21,.16-.45,.27-.72,.34-.9,.28-1.77,.36-2.61,.26-.85-.1-1.67-.45-2.46-1.04-.69-.48-1.09-1.22-1.19-2.23-.17-1.9-.29-3.8-.36-5.69-.07-1.9-.12-3.8-.16-5.7-.59,.03-1.16,0-1.73-.13-.57-.12-.99-.39-1.27-.8-.14-.21-.22-.44-.23-.7-.02-.26-.03-.51-.03-.75,.03-.72,.07-1.45,.1-2.17,.03-.72,.03-1.45,0-2.17-.04-.9,.16-1.44,.6-1.63,.43-.19,1.04-.28,1.84-.28h.83c.07-2.28,.13-4.53,.18-6.76,.05-2.23,.11-4.48,.18-6.76,0-.76,.03-1.52,.1-2.28,.07-.76,.24-1.48,.52-2.17,.21-.55,.63-.89,1.27-1.01,.64-.12,1.22-.18,1.73-.18s1.04,.04,1.55,.13c.52,.09,1.04,.16,1.55,.23,.34,.07,.68,.16,1.01,.28,.33,.12,.6,.32,.8,.6,.14,.21,.22,.44,.23,.7,.02,.26,.03,.51,.03,.75,0,1.69,.02,3.37,.05,5.05,.03,1.67,.02,3.34-.05,5-.07,1-.1,2-.08,3,.02,1,.03,2,.03,3,0,.03,0,.07,.03,.1,.02,.03,.03,.09,.03,.16,.69-.03,1.39-.05,2.1-.05s1.41-.02,2.1-.05c.07-.14,.1-.24,.1-.31,.07-1.59,.19-3.16,.36-4.71,.17-1.55,.22-3.12,.16-4.71-.03-.79-.04-1.56-.03-2.3,.02-.74,.04-1.51,.08-2.3,0-.38,0-.73,.03-1.06,.02-.33,.03-.68,.03-1.06,.03-1.07,.28-1.84,.72-2.3,.45-.47,1.22-.78,2.33-.96,1.28-.14,2.61-.05,3.99,.26,1.17,.28,1.78,1,1.81,2.17Z"/><path class="d" d="M88.43,30.97c-.07,1.59-.08,3.18-.03,4.79,.05,1.6-.13,3.18-.54,4.74-.28,1.04-.72,2.02-1.32,2.95-.6,.93-1.42,1.54-2.46,1.81-.28,.1-.56,.16-.85,.18-.29,.02-.58,.04-.85,.08-.93,.07-1.87,.11-2.82,.13-.95,.02-1.89,.06-2.82,.13-.97,.07-1.92,.11-2.85,.13-.93,.02-1.88-.04-2.85-.18-.45-.07-.88-.16-1.29-.28-.41-.12-.81-.32-1.19-.6-.55-.38-.96-.89-1.22-1.53-.26-.64-.44-1.3-.54-1.99-.07-.55-.11-1.1-.13-1.66-.02-.55-.03-1.12-.03-1.71,0-1.24,0-2.48-.03-3.73-.02-1.24-.03-2.49-.03-3.73,0-1.62,.03-3.24,.08-4.84,.05-1.61,.16-3.22,.34-4.84,.17-1.73,.29-3.44,.36-5.15,.07-1.71,.14-3.42,.21-5.15,.03-.28,.07-.53,.1-.78,.03-.24,.1-.48,.21-.72,.28-.72,.56-1.43,.85-2.12,.29-.69,.79-1.24,1.48-1.66,.66-.38,1.36-.63,2.12-.75,.76-.12,1.52-.21,2.28-.28,.97-.07,1.92-.11,2.85-.13,.93-.02,1.86-.03,2.8-.03,.79,0,1.59,.04,2.38,.13,.79,.09,1.54,.32,2.23,.7,.73,.38,1.32,.91,1.79,1.58,.47,.67,.82,1.41,1.06,2.2,.24,.79,.39,1.6,.44,2.41,.05,.81,.09,1.61,.13,2.41,.07,1.28,.11,2.55,.13,3.81,.02,1.26,0,2.53-.03,3.81-.04,.79-.07,1.58-.1,2.36-.03,.78-.07,1.56-.1,2.36-.04,.72-.06,1.46-.08,2.2-.02,.74,.06,1.49,.23,2.25,.07,.14,.1,.27,.1,.39v.34Zm-8.34,2.28c.03-.79,.05-1.59,.05-2.38v-2.38c0-.72-.02-1.45-.05-2.17s-.07-1.45-.1-2.17c-.07-1.04-.13-2.08-.18-3.13-.05-1.05-.11-2.1-.18-3.13-.04-.45-.1-.87-.18-1.27-.09-.4-.16-.77-.23-1.11-.28-.34-.56-.55-.85-.62-.29-.07-.58-.09-.85-.05-.48,.03-.91,.22-1.29,.54-.38,.33-.57,.7-.57,1.11-.04,.79-.06,1.59-.08,2.38-.02,.79,0,1.59,.03,2.38,0,.66,.04,1.3,.13,1.94,.09,.64,.13,1.29,.13,1.94,0,1.07-.02,2.14-.05,3.21-.04,1.07-.07,2.14-.1,3.21v3.31c-.04,.38,.04,.67,.23,.88,.19,.21,.44,.4,.75,.57,.14,.07,.35,.14,.62,.21,.28-.07,.53-.14,.78-.21,.24-.07,.48-.14,.72-.21,.38-.14,.68-.33,.91-.57,.22-.24,.32-.57,.28-.98,0-.21,.02-.42,.05-.65,.03-.22,.05-.44,.05-.65Z"/><path class="d" d="M122.39,9.02c.9,2.42,1.28,4.83,1.14,7.25-.07,1.48-.1,2.96-.08,4.43,.02,1.47,.04,2.94,.08,4.43,.03,1.14-.02,2.27-.16,3.39-.14,1.12-.31,2.25-.52,3.39-.07,.41-.14,.84-.21,1.27-.07,.43-.16,.85-.26,1.27-.28,.9-.56,1.8-.85,2.72-.29,.91-.58,1.82-.85,2.72-.04,.07-.07,.16-.1,.26-.04,.1-.07,.19-.1,.26-.62,.93-1.3,1.79-2.04,2.56-.74,.78-1.67,1.39-2.77,1.84-.38,.17-.76,.34-1.14,.52-.38,.17-.76,.36-1.14,.57-.55,.28-1.12,.47-1.71,.57-.59,.1-1.17,.19-1.76,.26-.79,.07-1.61,.11-2.43,.13-.83,.02-1.64,.06-2.43,.13-.17,0-.36-.02-.57-.05-.21-.03-.4-.07-.57-.1-1.07-.28-1.64-.97-1.71-2.07-.07-.21-.07-.41,0-.62,.07-.66,.09-1.3,.05-1.94-.04-.64-.07-1.29-.1-1.94-.04-.9-.04-1.8-.03-2.72,.02-.91,.03-1.82,.03-2.72,0-.66,0-1.3,.03-1.94,.02-.64,.03-1.29,.03-1.94,0-.38-.02-.75-.05-1.11-.04-.36-.02-.72,.05-1.06,.07-.34,.13-.66,.18-.96,.05-.29,.08-.61,.08-.96,.07-2,.12-3.99,.15-5.95,.03-1.97,.07-3.95,.1-5.95,0-.1-.02-.17-.05-.21-.04-.03-.07-.05-.1-.05s-.07-.02-.1-.05c-.45-.07-.87-.11-1.27-.13-.4-.02-.72-.25-.96-.7-.14-.28-.22-.56-.26-.85-.03-.29-.05-.58-.05-.85l-.16-4.35v-.65c0-.22,.02-.44,.05-.65,.07-.34,.21-.66,.41-.93,.21-.28,.48-.48,.83-.62,.14-.07,.28-.1,.41-.1s.29-.02,.47-.05c.14,0,.48-.02,1.04-.05,.55-.03,1.19-.06,1.92-.08,.73-.02,1.48-.04,2.28-.08,.79-.03,1.53-.06,2.2-.08,.67-.02,1.23-.03,1.68-.03s.67,.02,.67,.05v-.05c.76,0,1.52,0,2.28-.03,.76-.02,1.5,0,2.23,.03,1.1,.07,2.1,.35,2.98,.85,.88,.5,1.66,1.16,2.36,1.99,.21,.24,.37,.52,.49,.83,.12,.31,.23,.62,.34,.93Zm-7.45,23.09c.28-2.52,.51-5.06,.7-7.61,.19-2.55,.16-5.11-.08-7.66-.07-.38-.16-.74-.26-1.09-.1-.34-.31-.6-.62-.78-.17-.1-.35-.16-.54-.18-.19-.02-.37-.03-.54-.03h-.75c-.22,0-.47-.02-.75-.05-.14,0-.22,.04-.26,.1-.07,.03-.1,.12-.1,.26-.07,.55-.1,1.1-.08,1.63,.02,.54,0,1.08-.03,1.63-.04,.93-.07,1.86-.1,2.8-.04,.93-.09,1.85-.16,2.74-.1,1.97-.22,3.92-.34,5.85-.12,1.93-.23,3.88-.34,5.85,0,.1,.02,.17,.05,.21,.07,.07,.15,.1,.26,.1,.62-.03,1.22-.16,1.81-.36,.59-.21,1.05-.55,1.4-1.04,.28-.34,.45-.72,.52-1.14s.14-.83,.21-1.24Z"/><path class="d" d="M146.46,30.97c-.07,1.59-.08,3.18-.03,4.79,.05,1.6-.13,3.18-.54,4.74-.28,1.04-.72,2.02-1.32,2.95-.6,.93-1.42,1.54-2.46,1.81-.28,.1-.56,.16-.85,.18-.29,.02-.58,.04-.85,.08-.93,.07-1.87,.11-2.82,.13-.95,.02-1.89,.06-2.82,.13-.97,.07-1.92,.11-2.85,.13-.93,.02-1.88-.04-2.85-.18-.45-.07-.88-.16-1.29-.28-.41-.12-.81-.32-1.19-.6-.55-.38-.96-.89-1.22-1.53-.26-.64-.44-1.3-.54-1.99-.07-.55-.11-1.1-.13-1.66-.02-.55-.03-1.12-.03-1.71,0-1.24,0-2.48-.03-3.73-.02-1.24-.03-2.49-.03-3.73,0-1.62,.03-3.24,.08-4.84,.05-1.61,.16-3.22,.34-4.84,.17-1.73,.29-3.44,.36-5.15,.07-1.71,.14-3.42,.21-5.15,.03-.28,.07-.53,.1-.78,.03-.24,.1-.48,.21-.72,.28-.72,.56-1.43,.85-2.12,.29-.69,.79-1.24,1.48-1.66,.66-.38,1.36-.63,2.12-.75,.76-.12,1.52-.21,2.28-.28,.97-.07,1.92-.11,2.85-.13,.93-.02,1.86-.03,2.8-.03,.79,0,1.59,.04,2.38,.13,.79,.09,1.54,.32,2.23,.7,.73,.38,1.32,.91,1.79,1.58,.47,.67,.82,1.41,1.06,2.2,.24,.79,.39,1.6,.44,2.41,.05,.81,.09,1.61,.13,2.41,.07,1.28,.11,2.55,.13,3.81,.02,1.26,0,2.53-.03,3.81-.04,.79-.07,1.58-.1,2.36-.03,.78-.07,1.56-.1,2.36-.04,.72-.06,1.46-.08,2.2-.02,.74,.06,1.49,.23,2.25,.07,.14,.1,.27,.1,.39v.34Zm-8.34,2.28c.03-.79,.05-1.59,.05-2.38v-2.38c0-.72-.02-1.45-.05-2.17s-.07-1.45-.1-2.17c-.07-1.04-.13-2.08-.18-3.13-.05-1.05-.11-2.1-.18-3.13-.04-.45-.1-.87-.18-1.27-.09-.4-.16-.77-.23-1.11-.28-.34-.56-.55-.85-.62-.29-.07-.58-.09-.85-.05-.48,.03-.91,.22-1.29,.54-.38,.33-.57,.7-.57,1.11-.04,.79-.06,1.59-.08,2.38-.02,.79,0,1.59,.03,2.38,0,.66,.04,1.3,.13,1.94,.09,.64,.13,1.29,.13,1.94,0,1.07-.02,2.14-.05,3.21-.04,1.07-.07,2.14-.1,3.21v3.31c-.04,.38,.04,.67,.23,.88,.19,.21,.44,.4,.75,.57,.14,.07,.35,.14,.62,.21,.28-.07,.53-.14,.78-.21,.24-.07,.48-.14,.72-.21,.38-.14,.68-.33,.91-.57,.22-.24,.32-.57,.28-.98,0-.21,.02-.42,.05-.65,.03-.22,.05-.44,.05-.65Z"/><path class="d" d="M173.9,31.74c.38,.52,.66,1.13,.83,1.84,.17,.71,.28,1.39,.31,2.04,.07,1.07,.06,2.14-.03,3.21-.09,1.07-.2,2.14-.34,3.21-.04,.38-.09,.77-.16,1.16-.07,.4-.19,.79-.36,1.17-.38,.72-.91,1.29-1.61,1.68-.69,.4-1.44,.68-2.25,.85-.81,.17-1.64,.28-2.48,.34s-1.63,.09-2.36,.13c-.59,.07-1.16,.09-1.71,.05-.55-.03-1.12-.03-1.71,0-.69,0-1.36,.02-1.99,.05-.64,.03-1.3,.03-1.99,0-.55,0-1.1-.03-1.63-.08-.54-.05-1.08-.11-1.63-.18-.48-.07-.95-.1-1.4-.1s-.91-.07-1.4-.21c-.41-.14-.8-.35-1.17-.62-.36-.28-.61-.64-.75-1.09-.07-.21-.1-.43-.1-.67v-.72c.1-2.48,.2-4.94,.28-7.35,.09-2.42,.13-4.87,.13-7.35,0-1.45,.02-2.9,.05-4.35,.03-1.45,.07-2.9,.1-4.35,0-.66,0-1.31-.03-1.97-.02-.66-.04-1.33-.08-2.02,0-.28,.02-.55,.05-.83,.03-.28-.1-.5-.41-.67-.35-.17-.71-.28-1.09-.31-.38-.03-.71-.24-.98-.62-.14-.17-.22-.37-.23-.6-.02-.22-.04-.46-.08-.7,0-.48-.03-1.01-.08-1.58-.05-.57-.08-1.14-.08-1.71s.05-1.13,.15-1.68c.1-.55,.29-1.05,.57-1.5,.07-.14,.16-.26,.26-.36,.14-.1,.38-.19,.73-.26,.66-.1,1.3-.14,1.94-.1,.64,.03,1.29,.05,1.94,.05,.69-.03,1.38-.05,2.07-.05h2.07c.93,0,1.86,0,2.79,.03,.93,.02,1.88,.03,2.85,.03,1.41,.07,2.83,.07,4.25,0,.79,0,1.56,.1,2.3,.28,.74,.19,1.46,.46,2.15,.8,.86,.41,1.48,1.16,1.86,2.23,.52,1.55,.83,3.16,.93,4.81,.07,1,.14,2,.21,3,.07,1,.12,2,.16,3,.07,1.21,.07,2.4,0,3.57-.07,1.17-.28,2.35-.62,3.52-.04,.17-.06,.33-.08,.47-.02,.14-.04,.28-.08,.41-.1,.35-.22,.66-.34,.96-.12,.29-.32,.58-.6,.85-.17,.17-.35,.36-.52,.57-.17,.21-.35,.43-.52,.67,.21,.07,.38,.1,.52,.1,.59,.1,1.04,.41,1.35,.93Zm-7.2,6.94c.21-.48,.21-1,0-1.55-.14-.31-.31-.53-.52-.67-.14-.07-.38-.1-.72-.1-1.45-.03-2.9-.03-4.35,0h-.7c-.33,0-.66,.02-.98,.05-.33,.03-.61,.1-.85,.21-.24,.1-.33,.28-.26,.52,.07,.24,.09,.47,.05,.7-.03,.23-.03,.46,0,.7,0,.28,.07,.47,.21,.57,.07,.03,.12,.05,.16,.05s.09,.02,.16,.05h.31c.69,.07,1.39,.12,2.1,.16,.71,.03,1.42,.05,2.15,.05,.24,0,.52,0,.83,.03,.31,.02,.62,.02,.93,0,.31-.02,.6-.08,.88-.18,.28-.1,.48-.29,.62-.57Zm-7.35-12.99c.21,.1,.48,.16,.83,.16,.69,0,1.41-.03,2.17-.08,.76-.05,1.43-.32,2.02-.8,.38-.28,.66-.61,.85-1.01,.19-.4,.32-.82,.39-1.27,.07-.45,.1-.9,.1-1.35s-.04-.9-.1-1.35c-.03-.66-.06-1.3-.08-1.94-.02-.64-.06-1.29-.13-1.94,0-.34-.07-.66-.21-.93-.17-.17-.37-.3-.6-.39-.23-.09-.46-.16-.7-.23-1.42-.21-2.81-.21-4.19,0-.24,0-.43,.07-.57,.21-.04,.07-.05,.14-.05,.21s-.02,.14-.05,.21c-.07,1.62-.09,3.23-.08,4.81,.02,1.59,0,3.18-.03,4.76v.34c0,.12,.03,.22,.1,.28,.03,.1,.14,.21,.31,.31Z"/><path class="d" d="M201.5,31.74c.38,.52,.66,1.13,.83,1.84,.17,.71,.28,1.39,.31,2.04,.07,1.07,.06,2.14-.03,3.21-.09,1.07-.2,2.14-.34,3.21-.04,.38-.09,.77-.16,1.16-.07,.4-.19,.79-.36,1.17-.38,.72-.91,1.29-1.61,1.68-.69,.4-1.44,.68-2.25,.85-.81,.17-1.64,.28-2.48,.34s-1.63,.09-2.36,.13c-.59,.07-1.16,.09-1.71,.05-.55-.03-1.12-.03-1.71,0-.69,0-1.36,.02-1.99,.05-.64,.03-1.3,.03-1.99,0-.55,0-1.1-.03-1.63-.08-.54-.05-1.08-.11-1.63-.18-.48-.07-.95-.1-1.4-.1s-.91-.07-1.4-.21c-.41-.14-.8-.35-1.17-.62-.36-.28-.61-.64-.75-1.09-.07-.21-.1-.43-.1-.67v-.72c.1-2.48,.2-4.94,.28-7.35,.09-2.42,.13-4.87,.13-7.35,0-1.45,.02-2.9,.05-4.35,.03-1.45,.07-2.9,.1-4.35,0-.66,0-1.31-.03-1.97-.02-.66-.04-1.33-.08-2.02,0-.28,.02-.55,.05-.83,.03-.28-.1-.5-.41-.67-.35-.17-.71-.28-1.09-.31-.38-.03-.71-.24-.98-.62-.14-.17-.22-.37-.23-.6-.02-.22-.04-.46-.08-.7,0-.48-.03-1.01-.08-1.58-.05-.57-.08-1.14-.08-1.71s.05-1.13,.15-1.68c.1-.55,.29-1.05,.57-1.5,.07-.14,.16-.26,.26-.36,.14-.1,.38-.19,.73-.26,.66-.1,1.3-.14,1.94-.1,.64,.03,1.29,.05,1.94,.05,.69-.03,1.38-.05,2.07-.05h2.07c.93,0,1.86,0,2.79,.03,.93,.02,1.88,.03,2.85,.03,1.41,.07,2.83,.07,4.25,0,.79,0,1.56,.1,2.3,.28,.74,.19,1.46,.46,2.15,.8,.86,.41,1.48,1.16,1.86,2.23,.52,1.55,.83,3.16,.93,4.81,.07,1,.14,2,.21,3,.07,1,.12,2,.16,3,.07,1.21,.07,2.4,0,3.57-.07,1.17-.28,2.35-.62,3.52-.04,.17-.06,.33-.08,.47-.02,.14-.04,.28-.08,.41-.1,.35-.22,.66-.34,.96-.12,.29-.32,.58-.6,.85-.17,.17-.35,.36-.52,.57-.17,.21-.35,.43-.52,.67,.21,.07,.38,.1,.52,.1,.59,.1,1.04,.41,1.35,.93Zm-7.2,6.94c.21-.48,.21-1,0-1.55-.14-.31-.31-.53-.52-.67-.14-.07-.38-.1-.72-.1-1.45-.03-2.9-.03-4.35,0h-.7c-.33,0-.66,.02-.98,.05-.33,.03-.61,.1-.85,.21-.24,.1-.33,.28-.26,.52,.07,.24,.09,.47,.05,.7-.03,.23-.03,.46,0,.7,0,.28,.07,.47,.21,.57,.07,.03,.12,.05,.16,.05s.09,.02,.16,.05h.31c.69,.07,1.39,.12,2.1,.16,.71,.03,1.42,.05,2.15,.05,.24,0,.52,0,.83,.03,.31,.02,.62,.02,.93,0,.31-.02,.6-.08,.88-.18,.28-.1,.48-.29,.62-.57Zm-7.35-12.99c.21,.1,.48,.16,.83,.16,.69,0,1.41-.03,2.17-.08,.76-.05,1.43-.32,2.02-.8,.38-.28,.66-.61,.85-1.01,.19-.4,.32-.82,.39-1.27,.07-.45,.1-.9,.1-1.35s-.04-.9-.1-1.35c-.03-.66-.06-1.3-.08-1.94-.02-.64-.06-1.29-.13-1.94,0-.34-.07-.66-.21-.93-.17-.17-.37-.3-.6-.39-.23-.09-.46-.16-.7-.23-1.42-.21-2.81-.21-4.19,0-.24,0-.43,.07-.57,.21-.04,.07-.05,.14-.05,.21s-.02,.14-.05,.21c-.07,1.62-.09,3.23-.08,4.81,.02,1.59,0,3.18-.03,4.76v.34c0,.12,.03,.22,.1,.28,.03,.1,.14,.21,.31,.31Z"/><path class="d" d="M227.69,9.9c-.1,.45-.24,.86-.41,1.24-.17,.38-.33,.76-.47,1.14-.28,.86-.6,1.7-.98,2.51-.38,.81-.78,1.61-1.19,2.41-.72,1.45-1.41,2.93-2.04,4.43-.64,1.5-1.2,3.05-1.68,4.63-.41,1.31-.92,2.56-1.53,3.75-.6,1.19-1.15,2.43-1.63,3.7-.48,1.31-.95,2.61-1.4,3.91-.45,1.29-.95,2.58-1.5,3.86-.28,.59-.56,1.16-.85,1.71-.29,.55-.63,1.07-1.01,1.55-.41,.48-.88,.91-1.4,1.27-.52,.36-1.09,.63-1.71,.8-.38,.1-.79,.16-1.22,.16h-1.22c-.28-.03-.54-.06-.8-.08-.26-.02-.51-.08-.75-.18-.31-.17-.58-.41-.8-.7-.22-.29-.37-.63-.44-1.01-.07-.38-.1-.74-.08-1.09,.02-.34,.06-.71,.13-1.09,.14-.66,.3-1.29,.49-1.92,.19-.62,.41-1.22,.65-1.81,.83-2.42,1.66-4.82,2.51-7.22,.85-2.4,1.7-4.79,2.56-7.17,.03-.07,.05-.14,.05-.21-1.42-2.49-2.8-4.98-4.14-7.48-1.35-2.5-2.67-5.03-3.99-7.58-.24-.45-.44-.91-.59-1.4-.16-.48-.13-.95,.08-1.4,.21-.52,.58-.89,1.11-1.11,.53-.22,1.1-.37,1.68-.44l2.48-.16c.28,0,.54,.02,.8,.05,.26,.03,.53,.09,.8,.16,.59,.24,1.11,.66,1.58,1.27,.47,.6,.82,1.2,1.06,1.79,.41,.93,.89,1.81,1.42,2.64,.53,.83,1.03,1.69,1.48,2.59,.07,.14,.17,.26,.31,.36,.14,.1,.26,.24,.36,.41,.34-.41,.64-.85,.88-1.32,.24-.47,.5-.94,.78-1.42,.31-.52,.62-1.04,.93-1.55,.31-.52,.62-1.02,.93-1.5,.28-.48,.56-.94,.85-1.37,.29-.43,.66-.78,1.11-1.06,.48-.34,1.04-.56,1.68-.65,.64-.09,1.25-.15,1.84-.18,.48,0,.97,.03,1.45,.1,.48,.07,.88,.28,1.19,.62,.21,.21,.35,.46,.44,.75,.09,.29,.16,.58,.23,.85,.1,.86,.09,1.67-.05,2.43Z"/><path class="d" d="M247.47,5.08c.9,.21,1.57,.72,2.02,1.55,.21,.45,.34,.89,.39,1.32,.05,.43,.06,.87,.03,1.32-.03,.72-.04,1.44-.03,2.15,.02,.71,.03,1.42,.03,2.15,0,.21-.02,.36-.05,.47,0,.38,0,.77,.03,1.17,.02,.4,0,.79-.03,1.19-.04,.4-.13,.77-.29,1.11-.15,.35-.41,.64-.75,.88-.35,.24-.72,.38-1.11,.41-.4,.03-.8,.03-1.22,0-.62,0-1.25,0-1.89-.03-.64-.02-1.27-.03-1.89-.03-.17-.03-.35-.06-.52-.08-.17-.02-.33-.06-.47-.13-.28-.17-.46-.41-.54-.7-.09-.29-.13-.58-.13-.85,0-.31,0-.62,.03-.93,.02-.31-.03-.6-.13-.88-.07-.14-.14-.22-.21-.26-.1-.07-.24-.1-.41-.1h-.8c-.29,0-.59,0-.88,.03-.29,.02-.56,.08-.8,.18-.24,.1-.41,.28-.52,.52-.17,.31-.24,.65-.21,1.01,.03,.36,.14,.7,.31,1.01,.14,.35,.32,.65,.54,.91,.22,.26,.47,.51,.75,.75,.73,.66,1.48,1.26,2.28,1.81,.79,.55,1.59,1.1,2.38,1.66,.79,.55,1.58,1.11,2.36,1.68,.78,.57,1.51,1.2,2.2,1.89,.41,.41,.71,.79,.88,1.14,.17,.31,.28,.64,.34,.98,.05,.35,.11,.69,.18,1.04,.07,.86,.11,1.72,.13,2.56,.02,.85,.04,1.68,.08,2.51v3.47c0,1.14-.04,2.28-.1,3.42,0,.48-.04,.98-.13,1.48-.09,.5-.16,1.01-.23,1.53-.04,.45-.28,.83-.73,1.14-.45,.38-.92,.64-1.42,.78-.5,.14-1.04,.22-1.63,.26l-4.35,.16c-.48,.03-.95,.07-1.4,.1-.45,.03-.91,.03-1.4,0-.59,0-1.18-.03-1.79-.08-.6-.05-1.2-.11-1.79-.18-.35-.04-.67-.06-.98-.08-.31-.02-.62-.04-.93-.08-.35-.07-.67-.1-.98-.08-.31,.02-.62-.03-.93-.13-.31-.1-.6-.25-.88-.44-.28-.19-.55-.37-.83-.54-.17-.14-.35-.28-.52-.44-.17-.16-.33-.34-.47-.54-.21-.31-.34-.66-.39-1.06-.05-.4-.1-.8-.13-1.22-.07-1.07-.1-2.14-.08-3.21,.02-1.07,.06-2.16,.13-3.26,.07-.55,.16-1.1,.26-1.66,.1-.55,.36-1.02,.78-1.4,.45-.41,.99-.66,1.63-.72,.64-.07,1.25-.09,1.84-.05,.34,0,.67,0,.98,.03,.31,.02,.64,.03,.98,.03,.31,.04,.63,.08,.96,.13,.33,.05,.61,.2,.85,.44,.17,.21,.28,.44,.34,.7,.05,.26,.09,.53,.13,.8,0,.52-.02,1.07-.05,1.66-.04,.59,.07,1.12,.31,1.6,0,.24,.14,.39,.41,.44,.28,.05,.6,.06,.96,.03,.36-.03,.71-.09,1.04-.16,.33-.07,.54-.1,.65-.1,.07-.03,.16-.06,.26-.08,.1-.02,.19-.06,.26-.13,.1-.07,.17-.18,.21-.34,.03-.16,.07-.3,.1-.44,.07-.76,.11-1.51,.13-2.25,.02-.74-.16-1.42-.54-2.04-.21-.38-.47-.72-.78-1.01-.31-.29-.64-.58-.98-.85-1.28-1.04-2.55-2.08-3.8-3.13-1.26-1.05-2.53-2.1-3.81-3.13-.24-.17-.47-.36-.7-.57-.22-.21-.41-.45-.54-.72-.17-.41-.29-.9-.36-1.45-.28-2.17-.39-4.38-.34-6.63,.05-2.24,.29-4.45,.7-6.63,.07-.24,.15-.47,.23-.7,.09-.22,.18-.46,.29-.7,.17-.38,.53-.69,1.09-.93,.52-.28,1.05-.46,1.61-.54,.55-.09,1.12-.15,1.71-.18,1.76-.14,3.52-.16,5.28-.08,1.76,.09,3.52,.11,5.28,.08,.41,0,.84,.04,1.27,.1,.43,.07,.85,.14,1.27,.21Z"/><path class="d" d="M286.76,40.18c.17,1.66,.35,3.31,.54,4.97,.19,1.66,.37,3.31,.54,4.97,.07,.48,.09,.96,.08,1.42-.02,.47-.18,.89-.49,1.27-.21,.28-.47,.47-.78,.59-.31,.12-.62,.22-.93,.28-.59,.14-1.16,.21-1.73,.21s-1.15-.03-1.73-.1c-.24-.04-.47-.07-.67-.1-.21-.03-.41-.09-.62-.16-.73-.31-1.26-.85-1.61-1.6-.17-.38-.3-.75-.39-1.11-.09-.36-.16-.73-.23-1.11-.1-.55-.21-1.1-.31-1.63-.1-.54-.19-1.08-.26-1.63-.07-.21-.1-.38-.1-.52-.1-.48-.19-1-.26-1.55-.07-.55-.26-1.04-.57-1.45-.31-.45-.64-.68-.98-.7-.35-.02-.76,0-1.24,.08-.52,.04-1.06,.02-1.63-.05-.57-.07-1.11-.12-1.63-.16-.35-.07-.59-.02-.73,.16-.07,.07-.11,.15-.13,.23-.02,.09-.04,.16-.08,.23-.07,.38-.16,.75-.29,1.11-.12,.36-.27,.7-.44,1.01-.17,.28-.38,.53-.62,.75-.24,.22-.5,.39-.78,.49-.48,.17-.97,.21-1.45,.13-.48-.09-.97-.15-1.45-.18-.48-.03-.95-.02-1.4,.05-.45,.07-.91,.09-1.4,.05-.45,0-.79-.09-1.04-.26-.21-.14-.35-.33-.44-.57-.09-.24-.15-.48-.18-.72-.07-.69,0-1.36,.23-2.02,.22-.66,.44-1.29,.65-1.92,.59-1.83,1.02-3.68,1.29-5.54,.28-1.86,.66-3.73,1.14-5.59,.31-1.31,.58-2.61,.8-3.91,.22-1.29,.47-2.6,.75-3.91,.24-1.14,.48-2.26,.72-3.37,.24-1.1,.53-2.21,.88-3.31,.17-.55,.3-1.12,.39-1.71,.09-.59,.18-1.17,.28-1.76,.1-.55,.22-1.1,.36-1.63,.14-.53,.34-1.06,.62-1.58,.07-.17,.16-.35,.26-.54,.1-.19,.19-.39,.26-.6,.14-.48,.34-.91,.62-1.27,.28-.36,.6-.7,.98-1.01,.28-.24,.56-.42,.85-.54,.29-.12,.61-.15,.96-.08,.55,.07,1.09,.08,1.61,.03s1.05-.08,1.61-.08c1.21,0,2.29,.24,3.26,.72,.69,.31,1.14,.83,1.35,1.55,.17,.41,.29,.9,.36,1.45,.14,.69,.26,1.39,.36,2.1,.1,.71,.21,1.42,.31,2.15,.45,3.04,.91,6.06,1.4,9.06,.48,3,.97,6.02,1.45,9.06,.14,.9,.28,1.79,.41,2.67,.14,.88,.28,1.77,.41,2.67,.14,.76,.31,1.5,.52,2.23s.31,1.48,.31,2.28Zm-10.51-6.63c.21-.17,.3-.51,.29-1.01-.02-.5-.1-1.04-.23-1.6-.14-.57-.28-1.12-.44-1.66-.16-.53-.25-.92-.28-1.16-.07-.55-.16-1.1-.29-1.66-.12-.55-.25-1.1-.39-1.66h-.16c-.1,0-.28,.4-.52,1.19-.24,.79-.49,1.69-.75,2.69-.26,1-.49,1.94-.7,2.82-.21,.88-.35,1.42-.41,1.63-.07,.31,.04,.52,.34,.62,.29,.1,.65,.16,1.06,.16s.83-.03,1.24-.08c.41-.05,.69-.09,.83-.13,.21-.07,.34-.12,.41-.16Z"/><path class="d" d="M314.51,48.1c.14,.28,.31,.62,.52,1.04,.21,.41,.37,.85,.49,1.29,.12,.45,.19,.89,.21,1.32,.02,.43-.09,.8-.34,1.11-.07,.14-.17,.25-.31,.34-.14,.09-.29,.16-.47,.23-.59,.28-1.2,.43-1.84,.47-.64,.03-1.29,.05-1.94,.05-.48-.03-.95-.08-1.4-.13-.45-.05-.86-.2-1.24-.44-.35-.24-.62-.52-.83-.83-.21-.31-.4-.62-.57-.93-.83-1.52-1.64-3.02-2.43-4.5-.79-1.48-1.57-3-2.33-4.56-.38-.72-.76-1.46-1.14-2.2-.38-.74-.71-1.51-.98-2.3-.14-.34-.26-.67-.36-.98-.1-.31-.24-.64-.41-.98-.1-.21-.3-.5-.6-.88-.29-.38-.44-.69-.44-.93,0,.55-.04,1.09-.1,1.61-.07,.52-.09,1.05-.05,1.6,.07,1.21,.11,2.43,.13,3.65,.02,1.23-.08,2.44-.29,3.65-.17,1-.72,1.61-1.66,1.81-.9,.24-1.8,.39-2.72,.44-.91,.05-1.84-.08-2.77-.39-.52-.17-.87-.37-1.06-.6-.19-.22-.28-.61-.28-1.16,0-1.1,.02-2.2,.05-3.29,.03-1.09,.05-2.18,.05-3.29-.04-.9-.08-1.79-.13-2.69-.05-.9-.09-1.79-.13-2.69-.04-.48-.07-.97-.1-1.45-.04-.48-.04-.97,0-1.45,.03-.69,.08-1.35,.13-1.99,.05-.64,.11-1.3,.18-1.99,.07-.52,.07-1.05,0-1.61-.14-1.28-.21-2.55-.21-3.83s.03-2.57,.1-3.88v-.57c.03-1.21,.06-2.39,.08-3.55,.02-1.16,.03-2.32,.03-3.49,0-.59,.04-1.15,.13-1.68,.09-.53,.25-1.06,.49-1.58,.24-.55,.66-.97,1.24-1.24,.9-.45,1.81-.67,2.74-.67,1.55,0,3.07-.02,4.56-.05,1.48-.03,2.98-.05,4.5-.05,1.31,.04,2.51,.16,3.6,.39,1.09,.23,2.15,.7,3.18,1.42,.17,.14,.34,.28,.52,.41,.17,.14,.33,.29,.47,.47,.28,.31,.46,.67,.54,1.06,.09,.4,.16,.79,.23,1.17,.17,1.1,.24,2.23,.21,3.36-.04,1.14-.07,2.26-.1,3.37-.07,1-.13,2.01-.18,3.03-.05,1.02-.13,2.03-.23,3.03-.07,.79-.16,1.64-.28,2.54-.12,.9-.42,1.67-.91,2.33-.52,.69-1.24,1.19-2.17,1.5-.14,.03-.35,.07-.62,.1-.28,.04-.56,.08-.85,.13-.29,.05-.56,.1-.8,.16-.24,.05-.4,.13-.47,.23-.07,.1-.05,.28,.05,.54s.23,.54,.39,.85c.15,.31,.3,.6,.44,.85,.14,.26,.24,.44,.31,.54,.28,.59,.53,1.16,.78,1.71,.24,.55,.5,1.1,.78,1.66,1.62,3.52,3.31,7.01,5.07,10.46l1.55,2.95Zm-12.58-29.87c.28-.38,.42-.8,.44-1.27,.02-.47,0-.92-.08-1.37l-.16-1.4c-.04-.17-.07-.34-.1-.49-.04-.16-.09-.3-.16-.44-.17-.21-.41-.34-.7-.41-.29-.07-.58-.12-.85-.16-.55-.03-1.11-.03-1.66,0-.24,.03-.47,.09-.67,.16-.21,.07-.38,.19-.52,.36-.07,.07-.1,.16-.1,.26s-.02,.21-.05,.31c-.07,.59-.09,1.18-.05,1.79,.03,.6,.07,1.2,.1,1.79v.6c0,.23,0,.44,.03,.65,.02,.21,.08,.39,.18,.54s.28,.28,.52,.39c.24,.1,.5,.12,.78,.05,.45-.03,.88-.1,1.29-.21,.41-.1,.79-.26,1.14-.47,.28-.21,.48-.43,.62-.67Z"/><path class="d" d="M337.39,34.02c.17,.35,.29,.72,.36,1.14,.1,1.21,.15,2.41,.13,3.6-.02,1.19-.15,2.39-.39,3.6-.07,.35-.16,.68-.26,1.01-.1,.33-.26,.63-.47,.91-.45,.59-1.04,1-1.76,1.24-.72,.24-1.45,.4-2.17,.47-.59,.07-1.29,.12-2.1,.16-.81,.03-1.65,.07-2.51,.1-.86,.03-1.71,.06-2.54,.08-.83,.02-1.52,.03-2.07,.03-2.35,.07-4.61-.16-6.78-.67-.35-.07-.67-.16-.98-.28-.31-.12-.62-.27-.93-.44-.66-.38-1.12-.93-1.4-1.66-.21-.48-.32-1-.34-1.55-.02-.55,0-1.1,.03-1.66,.07-1.35,.13-2.7,.18-4.06,.05-1.36,.11-2.74,.18-4.12,.07-1.28,.11-2.55,.13-3.83,.02-1.28,.04-2.57,.08-3.88,.07-1,.14-2.01,.21-3.03,.07-1.02,.14-2.03,.21-3.03,.07-.72,.1-1.46,.1-2.2s.02-1.48,.05-2.2c0-.97,.03-1.92,.08-2.87,.05-.95,.16-1.89,.34-2.82,.1-.59,.29-1.1,.57-1.55,.21-.34,.52-.64,.93-.88,.48-.28,.98-.47,1.5-.57,.52-.1,1.04-.19,1.55-.26,.59-.07,1.16-.12,1.71-.16,.55-.03,1.1-.05,1.66-.05,1.28-.03,2.54-.06,3.8-.08,1.26-.02,2.51-.03,3.75-.03,.41,0,.83,.03,1.24,.08,.41,.05,.83,.11,1.24,.18,.48,.07,.9,.22,1.24,.47,.34,.24,.6,.59,.78,1.04,.1,.28,.22,.56,.36,.85,.14,.29,.26,.58,.36,.85,.17,.55,.17,1.21,0,1.97-.04,.21-.06,.41-.08,.6-.02,.19-.03,.39-.03,.6-.03,1-.05,1.99-.05,2.95s-.02,1.95-.05,2.95c0,.24-.02,.41-.05,.52-.45,.62-1.05,1-1.81,1.14-.24,.04-.47,.09-.67,.16-.21,.07-.43,.12-.67,.16-.59,.03-1.17,.05-1.73,.05s-1.15,.02-1.73,.05c-.79-.38-1.24-1.05-1.35-2.02-.04-.41-.09-.82-.16-1.22-.07-.4-.14-.8-.21-1.22-.66-.07-1.3-.09-1.94-.05-.64,.04-1.3,.19-1.99,.47-.07,.17-.14,.36-.21,.57s-.1,.41-.1,.62c-.04,.69-.05,1.37-.05,2.04s-.02,1.36-.05,2.04h.83c.59,0,1.15,0,1.68-.03,.53-.02,1.08-.04,1.63-.08,.83-.03,1.49,.2,1.99,.7,.5,.5,.75,1.1,.75,1.79,.03,.59,.08,1.15,.13,1.68,.05,.54,.09,1.1,.13,1.68,0,.66-.05,1.29-.16,1.92-.1,.79-.54,1.29-1.29,1.5-.28,.07-.54,.12-.8,.16-.26,.03-.53,.07-.8,.1-.38,.04-.75,.04-1.11,.03-.36-.02-.73,0-1.11,.03-.24,.04-.47,.07-.7,.1-.23,.03-.47,.07-.75,.1-.07,.14-.1,.26-.1,.36,0,.79,0,1.59-.03,2.38-.02,.79,0,1.59,.03,2.38,0,1,.52,1.61,1.55,1.81,1.24,.28,2.48,.31,3.73,.1,.17-.03,.34-.07,.49-.1,.16-.03,.3-.12,.44-.26,.17-.14,.29-.32,.36-.54,.07-.22,.12-.44,.15-.65,.03-.28,.06-.53,.08-.78,.02-.24,.06-.5,.13-.78,.17-.21,.52-.4,1.04-.57,.83-.17,1.66-.28,2.48-.31,.83-.03,1.67-.05,2.54-.05,.38,0,.69,.1,.93,.31,.24,.21,.45,.45,.62,.72Z"/><path class="d" d="M339.41,20.2c-.35-.38-.5-.89-.47-1.53,.03-.64,.05-1.2,.05-1.68,.03-.59,.1-1.18,.21-1.79,.1-.6,.28-1.18,.52-1.73,.31-.79,.75-1.5,1.32-2.12,.57-.62,1.25-1.1,2.04-1.45,.69-.31,1.42-.5,2.2-.57,.78-.07,1.54-.07,2.3,0,.48,0,.95,.02,1.4,.05,.45,.04,.91,.09,1.4,.16,.21,.03,.41,.06,.6,.08,.19,.02,.39,.04,.6,.08,.73,.17,1.39,.5,1.99,.98,.6,.48,1.13,1.02,1.58,1.61,.72,.93,1.29,1.95,1.71,3.05,.17,.45,.37,.92,.6,1.42,.22,.5,.37,.99,.44,1.48,.07,.59,.07,1.19,0,1.81-.07,.62-.16,1.23-.26,1.81-.07,.59-.19,1.16-.36,1.73-.17,.57-.4,1.13-.67,1.68-.55,1.07-1.25,1.96-2.1,2.67-.85,.71-1.65,1.49-2.41,2.36-.35,.38-.66,.75-.96,1.11-.29,.36-.54,.75-.75,1.16-.38,.79-.65,1.63-.8,2.51-.16,.88-.32,1.77-.49,2.67l-.78,3.88c-.07,.45-.14,.97-.21,1.55-.07,.59-.33,1.02-.78,1.29-.38,.24-.86,.36-1.45,.36-.17,0-.36-.02-.57-.05-.21-.03-.4-.1-.57-.21-.35-.21-.59-.48-.73-.83-.14-.34-.24-.71-.31-1.09-.35-1.66-.54-3.3-.57-4.92-.04-1.62,.03-3.26,.21-4.92,.07-.66,.15-1.29,.26-1.92,.1-.62,.31-1.21,.62-1.76,.17-.31,.37-.61,.6-.91,.22-.29,.47-.58,.75-.85,.79-.83,1.62-1.65,2.48-2.46,.86-.81,1.59-1.68,2.17-2.61,.24-.34,.43-.69,.57-1.04,.14-.34,.19-.71,.16-1.09-.07-.55-.32-1.08-.75-1.58-.43-.5-.91-.84-1.42-1.01-.28-.07-.66-.15-1.16-.23-.5-.09-.89-.04-1.17,.13-.21,.1-.28,.22-.23,.34,.05,.12,.08,.3,.08,.54,0,.41-.07,.81-.21,1.19-.1,.28-.26,.53-.47,.75-.21,.22-.45,.39-.72,.49-.17,.07-.34,.12-.49,.16-.16,.03-.32,.07-.49,.1-1.17,.1-2.36-.03-3.57-.41-.28-.07-.47-.14-.57-.21-.21-.14-.33-.22-.36-.26Zm8.7,26.71c.17,.07,.28,.21,.31,.41,.03,.21,.05,.4,.05,.57,0,.52,0,1.04-.03,1.55-.02,.52-.03,1.04-.03,1.55,0,.21-.02,.34-.05,.41-.03,.03-.14,.1-.31,.21-.48,.21-.98,.36-1.48,.47-.5,.1-1.01,.19-1.53,.26-.17,.03-.33,.05-.47,.05s-.26-.05-.36-.16c-.14-.07-.22-.18-.26-.34-.04-.16-.07-.32-.1-.49-.04-.28-.08-.6-.13-.96-.05-.36-.09-.72-.1-1.09-.02-.36,0-.71,.08-1.04,.07-.33,.21-.61,.41-.85,.17-.17,.44-.33,.8-.47,.36-.14,.74-.23,1.14-.28,.4-.05,.79-.06,1.17-.03,.38,.03,.67,.1,.88,.21Z"/></g><g><path class="e" d="M37.44,10.5c-.1,.9-.2,1.79-.28,2.67-.09,.88-.2,1.77-.34,2.67-.35,2.59-.74,5.14-1.19,7.66-.45,2.52-.88,5.06-1.29,7.61-.45,2.59-.93,5.16-1.45,7.71-.52,2.55-1.09,5.13-1.71,7.71-.07,.24-.13,.47-.18,.7-.05,.22-.16,.44-.34,.65-.17,.21-.37,.37-.6,.49-.23,.12-.46,.23-.7,.34-1.1,.38-2.24,.53-3.42,.47-.28-.04-.56-.08-.85-.13s-.58-.16-.85-.34c-.52-.28-.92-.7-1.22-1.27-.29-.57-.53-1.15-.7-1.73-.24-.76-.47-1.52-.67-2.28-.21-.76-.41-1.54-.62-2.33-.04-.1-.11-.36-.23-.78-.12-.41-.24-.85-.36-1.29-.12-.45-.23-.86-.31-1.24-.09-.38-.1-.6-.03-.67-.31,.35-.54,.75-.7,1.22-.16,.47-.29,.95-.39,1.45-.1,.5-.23,.99-.39,1.48-.16,.48-.39,.91-.7,1.29-.41,.48-.97,.72-1.66,.72-.55-.04-1.09-.04-1.61,0-.52,.03-1.04,.07-1.55,.1-1.31,.03-2.38-.62-3.21-1.97-.07-.1-.15-.22-.23-.34-.09-.12-.18-.23-.29-.34-.28-.28-.47-.67-.57-1.19-.45-1.45-.88-2.89-1.29-4.32-.41-1.43-.85-2.87-1.29-4.32-.07-.34-.15-.68-.23-1.01-.09-.33-.16-.65-.23-.96-.28-1.04-.53-2.07-.75-3.11-.22-1.04-.47-2.05-.75-3.05-.35-1.17-.63-2.35-.85-3.52-.22-1.17-.42-2.36-.6-3.57-.07-.24-.12-.47-.16-.7-.03-.22-.09-.44-.16-.65-.28-.83-.49-1.66-.65-2.51-.16-.85-.3-1.72-.44-2.61-.1-.76-.21-1.5-.31-2.23s-.22-1.47-.36-2.23c-.07-.55-.1-1.11-.08-1.68,.02-.57,.28-1.04,.8-1.42,.45-.31,1.05-.5,1.81-.57,.52-.07,1.09-.12,1.71-.16,.62-.03,1.24-.02,1.86,.05,.62,.07,1.21,.21,1.76,.41,.55,.21,1.02,.52,1.4,.93,.59,.62,.94,1.34,1.06,2.15,.12,.81,.28,1.61,.49,2.41,.28,1.04,.52,2.07,.72,3.11,.21,1.04,.4,2.09,.57,3.16l1.24,7.61c.24-1.28,.47-2.54,.7-3.78,.22-1.24,.46-2.48,.7-3.73,.07-.48,.16-1.04,.26-1.68,.1-.64,.29-1.15,.57-1.53,.17-.24,.42-.44,.75-.6,.33-.16,.68-.28,1.06-.36,.38-.09,.76-.12,1.14-.1,.38,.02,.71,.04,.98,.08,.28,.07,.55,.07,.83,0,.59-.1,1.1-.08,1.53,.08s.79,.51,1.06,1.06c.17,.31,.28,.63,.34,.96,.05,.33,.11,.67,.18,1.01,.28,1.86,.53,3.69,.78,5.49,.24,1.79,.5,3.62,.78,5.49,0-1.76,.12-3.53,.36-5.31,.24-1.78,.45-3.55,.62-5.31,.07-.69,.15-1.43,.23-2.23,.09-.79,.2-1.59,.34-2.38,.14-.79,.31-1.56,.52-2.3,.21-.74,.48-1.42,.83-2.04,.28-.52,.62-.98,1.04-1.37,.41-.4,.9-.68,1.45-.85,.41-.14,.91-.21,1.5-.21,.52,0,1.02,.03,1.5,.1,.48,.07,.97,.21,1.45,.41,.48,.21,.91,.47,1.29,.8,.38,.33,.66,.73,.83,1.22,.17,.41,.27,.85,.28,1.29,.02,.45,0,.9-.03,1.35-.07,.69-.16,1.39-.26,2.1-.1,.71-.19,1.41-.26,2.1Z"/><path class="e" d="M63.49,3.15c.03,1.04,.04,2.07,.03,3.11-.02,1.04-.06,2.07-.13,3.11-.07,.59-.09,1.17-.05,1.76,.03,.59,.05,1.17,.05,1.76,0,1.42,0,2.82-.03,4.22-.02,1.4-.03,2.8-.03,4.22v6.21c-.03,.48-.07,.98-.1,1.5s-.07,1.04-.1,1.55c-.04,.59-.07,1.19-.1,1.81-.04,.62-.07,1.23-.1,1.81-.07,1.14-.12,2.28-.16,3.42-.04,1.14-.09,2.3-.16,3.47-.07,.59-.28,1.09-.62,1.5-.35,.41-.81,.71-1.4,.88-1.24,.31-2.47,.26-3.68-.16-.79-.28-1.38-.68-1.76-1.22-.38-.53-.6-1.23-.67-2.1-.17-1.66-.28-3.32-.31-5-.04-1.67-.09-3.36-.16-5.05,0-.21-.02-.4-.05-.57-.73-.03-1.45-.07-2.17-.1-.72-.03-1.47-.07-2.23-.1-.14,.69-.21,1.36-.21,2.02s.03,1.33,.1,2.02c.03,.31,.04,.62,.03,.93-.02,.31-.03,.62-.03,.93-.04,.52-.08,1.03-.13,1.53-.05,.5-.08,1.01-.08,1.53,.03,.79-.05,1.57-.26,2.33-.21,.76-.41,1.52-.62,2.28-.07,.28-.21,.49-.41,.65-.21,.16-.45,.27-.72,.34-.9,.28-1.77,.36-2.61,.26-.85-.1-1.67-.45-2.46-1.04-.69-.48-1.09-1.22-1.19-2.23-.17-1.9-.29-3.8-.36-5.69-.07-1.9-.12-3.8-.16-5.7-.59,.03-1.16,0-1.73-.13-.57-.12-.99-.39-1.27-.8-.14-.21-.22-.44-.23-.7-.02-.26-.03-.51-.03-.75,.03-.72,.07-1.45,.1-2.17,.03-.72,.03-1.45,0-2.17-.04-.9,.16-1.44,.6-1.63,.43-.19,1.04-.28,1.84-.28h.83c.07-2.28,.13-4.53,.18-6.76,.05-2.23,.11-4.48,.18-6.76,0-.76,.03-1.52,.1-2.28,.07-.76,.24-1.48,.52-2.17,.21-.55,.63-.89,1.27-1.01,.64-.12,1.22-.18,1.73-.18s1.04,.04,1.55,.13c.52,.09,1.04,.16,1.55,.23,.34,.07,.68,.16,1.01,.28,.33,.12,.6,.32,.8,.6,.14,.21,.22,.44,.23,.7,.02,.26,.03,.51,.03,.75,0,1.69,.02,3.37,.05,5.05,.03,1.67,.02,3.34-.05,5-.07,1-.1,2-.08,3,.02,1,.03,2,.03,3,0,.03,0,.07,.03,.1,.02,.03,.03,.09,.03,.16,.69-.03,1.39-.05,2.1-.05s1.41-.02,2.1-.05c.07-.14,.1-.24,.1-.31,.07-1.59,.19-3.16,.36-4.71,.17-1.55,.22-3.12,.16-4.71-.03-.79-.04-1.56-.03-2.3,.02-.74,.04-1.51,.08-2.3,0-.38,0-.73,.03-1.06,.02-.33,.03-.68,.03-1.06,.03-1.07,.28-1.84,.72-2.3,.45-.47,1.22-.78,2.33-.96,1.28-.14,2.61-.05,3.99,.26,1.17,.28,1.78,1,1.81,2.17Z"/><path class="e" d="M86.42,27.95c-.07,1.59-.08,3.18-.03,4.79,.05,1.6-.13,3.18-.54,4.74-.28,1.04-.72,2.02-1.32,2.95-.6,.93-1.42,1.54-2.46,1.81-.28,.1-.56,.16-.85,.18-.29,.02-.58,.04-.85,.08-.93,.07-1.87,.11-2.82,.13-.95,.02-1.89,.06-2.82,.13-.97,.07-1.92,.11-2.85,.13-.93,.02-1.88-.04-2.85-.18-.45-.07-.88-.16-1.29-.28-.41-.12-.81-.32-1.19-.6-.55-.38-.96-.89-1.22-1.53-.26-.64-.44-1.3-.54-1.99-.07-.55-.11-1.1-.13-1.66-.02-.55-.03-1.12-.03-1.71,0-1.24,0-2.48-.03-3.73-.02-1.24-.03-2.49-.03-3.73,0-1.62,.03-3.24,.08-4.84,.05-1.61,.16-3.22,.34-4.84,.17-1.73,.29-3.44,.36-5.15,.07-1.71,.14-3.42,.21-5.15,.03-.28,.07-.53,.1-.78,.03-.24,.1-.48,.21-.72,.28-.72,.56-1.43,.85-2.12,.29-.69,.79-1.24,1.48-1.66,.66-.38,1.36-.63,2.12-.75,.76-.12,1.52-.21,2.28-.28,.97-.07,1.92-.11,2.85-.13,.93-.02,1.86-.03,2.8-.03,.79,0,1.59,.04,2.38,.13,.79,.09,1.54,.32,2.23,.7,.73,.38,1.32,.91,1.79,1.58,.47,.67,.82,1.41,1.06,2.2,.24,.79,.39,1.6,.44,2.41,.05,.81,.09,1.61,.13,2.41,.07,1.28,.11,2.55,.13,3.81,.02,1.26,0,2.53-.03,3.81-.04,.79-.07,1.58-.1,2.36-.03,.78-.07,1.56-.1,2.36-.04,.72-.06,1.46-.08,2.2-.02,.74,.06,1.49,.23,2.25,.07,.14,.1,.27,.1,.39v.34Zm-8.34,2.28c.03-.79,.05-1.59,.05-2.38v-2.38c0-.72-.02-1.45-.05-2.17s-.07-1.45-.1-2.17c-.07-1.04-.13-2.08-.18-3.13-.05-1.05-.11-2.1-.18-3.13-.04-.45-.1-.87-.18-1.27-.09-.4-.16-.77-.23-1.11-.28-.34-.56-.55-.85-.62-.29-.07-.58-.09-.85-.05-.48,.03-.91,.22-1.29,.54-.38,.33-.57,.7-.57,1.11-.04,.79-.06,1.59-.08,2.38-.02,.79,0,1.59,.03,2.38,0,.66,.04,1.3,.13,1.94,.09,.64,.13,1.29,.13,1.94,0,1.07-.02,2.14-.05,3.21-.04,1.07-.07,2.14-.1,3.21v3.31c-.04,.38,.04,.67,.23,.88,.19,.21,.44,.4,.75,.57,.14,.07,.35,.14,.62,.21,.28-.07,.53-.14,.78-.21,.24-.07,.48-.14,.72-.21,.38-.14,.68-.33,.91-.57,.22-.24,.32-.57,.28-.98,0-.21,.02-.42,.05-.65,.03-.22,.05-.44,.05-.65Z"/><path class="e" d="M120.38,6c.9,2.42,1.28,4.83,1.14,7.25-.07,1.48-.1,2.96-.08,4.43,.02,1.47,.04,2.94,.08,4.43,.03,1.14-.02,2.27-.16,3.39-.14,1.12-.31,2.25-.52,3.39-.07,.41-.14,.84-.21,1.27-.07,.43-.16,.85-.26,1.27-.28,.9-.56,1.8-.85,2.72-.29,.91-.58,1.82-.85,2.72-.04,.07-.07,.16-.1,.26-.04,.1-.07,.19-.1,.26-.62,.93-1.3,1.79-2.04,2.56-.74,.78-1.67,1.39-2.77,1.84-.38,.17-.76,.34-1.14,.52-.38,.17-.76,.36-1.14,.57-.55,.28-1.12,.47-1.71,.57-.59,.1-1.17,.19-1.76,.26-.79,.07-1.61,.11-2.43,.13-.83,.02-1.64,.06-2.43,.13-.17,0-.36-.02-.57-.05-.21-.03-.4-.07-.57-.1-1.07-.28-1.64-.97-1.71-2.07-.07-.21-.07-.41,0-.62,.07-.66,.09-1.3,.05-1.94-.04-.64-.07-1.29-.1-1.94-.04-.9-.04-1.8-.03-2.72,.02-.91,.03-1.82,.03-2.72,0-.66,0-1.3,.03-1.94,.02-.64,.03-1.29,.03-1.94,0-.38-.02-.75-.05-1.11-.04-.36-.02-.72,.05-1.06,.07-.34,.13-.66,.18-.96,.05-.29,.08-.61,.08-.96,.07-2,.12-3.99,.15-5.95,.03-1.97,.07-3.95,.1-5.95,0-.1-.02-.17-.05-.21-.04-.03-.07-.05-.1-.05s-.07-.02-.1-.05c-.45-.07-.87-.11-1.27-.13-.4-.02-.72-.25-.96-.7-.14-.28-.22-.56-.26-.85-.03-.29-.05-.58-.05-.85l-.16-4.35v-.65c0-.22,.02-.44,.05-.65,.07-.34,.21-.66,.41-.93,.21-.28,.48-.48,.83-.62,.14-.07,.28-.1,.41-.1s.29-.02,.47-.05c.14,0,.48-.02,1.04-.05,.55-.03,1.19-.06,1.92-.08,.73-.02,1.48-.04,2.28-.08,.79-.03,1.53-.06,2.2-.08,.67-.02,1.23-.03,1.68-.03s.67,.02,.67,.05v-.05c.76,0,1.52,0,2.28-.03,.76-.02,1.5,0,2.23,.03,1.1,.07,2.1,.35,2.98,.85,.88,.5,1.66,1.16,2.36,1.99,.21,.24,.37,.52,.49,.83,.12,.31,.23,.62,.34,.93Zm-7.45,23.09c.28-2.52,.51-5.06,.7-7.61,.19-2.55,.16-5.11-.08-7.66-.07-.38-.16-.74-.26-1.09-.1-.34-.31-.6-.62-.78-.17-.1-.35-.16-.54-.18-.19-.02-.37-.03-.54-.03h-.75c-.22,0-.47-.02-.75-.05-.14,0-.22,.04-.26,.1-.07,.03-.1,.12-.1,.26-.07,.55-.1,1.1-.08,1.63,.02,.54,0,1.08-.03,1.63-.04,.93-.07,1.86-.1,2.8-.04,.93-.09,1.85-.16,2.74-.1,1.97-.22,3.92-.34,5.85-.12,1.93-.23,3.88-.34,5.85,0,.1,.02,.17,.05,.21,.07,.07,.15,.1,.26,.1,.62-.03,1.22-.16,1.81-.36,.59-.21,1.05-.55,1.4-1.04,.28-.34,.45-.72,.52-1.14s.14-.83,.21-1.24Z"/><path class="e" d="M144.45,27.95c-.07,1.59-.08,3.18-.03,4.79,.05,1.6-.13,3.18-.54,4.74-.28,1.04-.72,2.02-1.32,2.95-.6,.93-1.42,1.54-2.46,1.81-.28,.1-.56,.16-.85,.18-.29,.02-.58,.04-.85,.08-.93,.07-1.87,.11-2.82,.13-.95,.02-1.89,.06-2.82,.13-.97,.07-1.92,.11-2.85,.13-.93,.02-1.88-.04-2.85-.18-.45-.07-.88-.16-1.29-.28-.41-.12-.81-.32-1.19-.6-.55-.38-.96-.89-1.22-1.53-.26-.64-.44-1.3-.54-1.99-.07-.55-.11-1.1-.13-1.66-.02-.55-.03-1.12-.03-1.71,0-1.24,0-2.48-.03-3.73-.02-1.24-.03-2.49-.03-3.73,0-1.62,.03-3.24,.08-4.84,.05-1.61,.16-3.22,.34-4.84,.17-1.73,.29-3.44,.36-5.15,.07-1.71,.14-3.42,.21-5.15,.03-.28,.07-.53,.1-.78,.03-.24,.1-.48,.21-.72,.28-.72,.56-1.43,.85-2.12,.29-.69,.79-1.24,1.48-1.66,.66-.38,1.36-.63,2.12-.75,.76-.12,1.52-.21,2.28-.28,.97-.07,1.92-.11,2.85-.13,.93-.02,1.86-.03,2.8-.03,.79,0,1.59,.04,2.38,.13,.79,.09,1.54,.32,2.23,.7,.73,.38,1.32,.91,1.79,1.58,.47,.67,.82,1.41,1.06,2.2,.24,.79,.39,1.6,.44,2.41,.05,.81,.09,1.61,.13,2.41,.07,1.28,.11,2.55,.13,3.81,.02,1.26,0,2.53-.03,3.81-.04,.79-.07,1.58-.1,2.36-.03,.78-.07,1.56-.1,2.36-.04,.72-.06,1.46-.08,2.2-.02,.74,.06,1.49,.23,2.25,.07,.14,.1,.27,.1,.39v.34Zm-8.34,2.28c.03-.79,.05-1.59,.05-2.38v-2.38c0-.72-.02-1.45-.05-2.17s-.07-1.45-.1-2.17c-.07-1.04-.13-2.08-.18-3.13-.05-1.05-.11-2.1-.18-3.13-.04-.45-.1-.87-.18-1.27-.09-.4-.16-.77-.23-1.11-.28-.34-.56-.55-.85-.62-.29-.07-.58-.09-.85-.05-.48,.03-.91,.22-1.29,.54-.38,.33-.57,.7-.57,1.11-.04,.79-.06,1.59-.08,2.38-.02,.79,0,1.59,.03,2.38,0,.66,.04,1.3,.13,1.94,.09,.64,.13,1.29,.13,1.94,0,1.07-.02,2.14-.05,3.21-.04,1.07-.07,2.14-.1,3.21v3.31c-.04,.38,.04,.67,.23,.88,.19,.21,.44,.4,.75,.57,.14,.07,.35,.14,.62,.21,.28-.07,.53-.14,.78-.21,.24-.07,.48-.14,.72-.21,.38-.14,.68-.33,.91-.57,.22-.24,.32-.57,.28-.98,0-.21,.02-.42,.05-.65,.03-.22,.05-.44,.05-.65Z"/><path class="e" d="M171.89,28.73c.38,.52,.66,1.13,.83,1.84,.17,.71,.28,1.39,.31,2.04,.07,1.07,.06,2.14-.03,3.21-.09,1.07-.2,2.14-.34,3.21-.04,.38-.09,.77-.16,1.16-.07,.4-.19,.79-.36,1.17-.38,.72-.91,1.29-1.61,1.68-.69,.4-1.44,.68-2.25,.85-.81,.17-1.64,.28-2.48,.34s-1.63,.09-2.36,.13c-.59,.07-1.16,.09-1.71,.05-.55-.03-1.12-.03-1.71,0-.69,0-1.36,.02-1.99,.05-.64,.03-1.3,.03-1.99,0-.55,0-1.1-.03-1.63-.08-.54-.05-1.08-.11-1.63-.18-.48-.07-.95-.1-1.4-.1s-.91-.07-1.4-.21c-.41-.14-.8-.35-1.17-.62-.36-.28-.61-.64-.75-1.09-.07-.21-.1-.43-.1-.67v-.72c.1-2.48,.2-4.94,.28-7.35,.09-2.42,.13-4.87,.13-7.35,0-1.45,.02-2.9,.05-4.35,.03-1.45,.07-2.9,.1-4.35,0-.66,0-1.31-.03-1.97-.02-.66-.04-1.33-.08-2.02,0-.28,.02-.55,.05-.83,.03-.28-.1-.5-.41-.67-.35-.17-.71-.28-1.09-.31-.38-.03-.71-.24-.98-.62-.14-.17-.22-.37-.23-.6-.02-.22-.04-.46-.08-.7,0-.48-.03-1.01-.08-1.58-.05-.57-.08-1.14-.08-1.71s.05-1.13,.15-1.68c.1-.55,.29-1.05,.57-1.5,.07-.14,.16-.26,.26-.36,.14-.1,.38-.19,.73-.26,.66-.1,1.3-.14,1.94-.1,.64,.03,1.29,.05,1.94,.05,.69-.03,1.38-.05,2.07-.05h2.07c.93,0,1.86,0,2.79,.03,.93,.02,1.88,.03,2.85,.03,1.41,.07,2.83,.07,4.25,0,.79,0,1.56,.1,2.3,.28,.74,.19,1.46,.46,2.15,.8,.86,.41,1.48,1.16,1.86,2.23,.52,1.55,.83,3.16,.93,4.81,.07,1,.14,2,.21,3,.07,1,.12,2,.16,3,.07,1.21,.07,2.4,0,3.57-.07,1.17-.28,2.35-.62,3.52-.04,.17-.06,.33-.08,.47-.02,.14-.04,.28-.08,.41-.1,.35-.22,.66-.34,.96-.12,.29-.32,.58-.6,.85-.17,.17-.35,.36-.52,.57-.17,.21-.35,.43-.52,.67,.21,.07,.38,.1,.52,.1,.59,.1,1.04,.41,1.35,.93Zm-7.2,6.94c.21-.48,.21-1,0-1.55-.14-.31-.31-.53-.52-.67-.14-.07-.38-.1-.72-.1-1.45-.03-2.9-.03-4.35,0h-.7c-.33,0-.66,.02-.98,.05-.33,.03-.61,.1-.85,.21-.24,.1-.33,.28-.26,.52,.07,.24,.09,.47,.05,.7-.03,.23-.03,.46,0,.7,0,.28,.07,.47,.21,.57,.07,.03,.12,.05,.16,.05s.09,.02,.16,.05h.31c.69,.07,1.39,.12,2.1,.16,.71,.03,1.42,.05,2.15,.05,.24,0,.52,0,.83,.03,.31,.02,.62,.02,.93,0,.31-.02,.6-.08,.88-.18,.28-.1,.48-.29,.62-.57Zm-7.35-12.99c.21,.1,.48,.16,.83,.16,.69,0,1.41-.03,2.17-.08,.76-.05,1.43-.32,2.02-.8,.38-.28,.66-.61,.85-1.01,.19-.4,.32-.82,.39-1.27,.07-.45,.1-.9,.1-1.35s-.04-.9-.1-1.35c-.03-.66-.06-1.3-.08-1.94-.02-.64-.06-1.29-.13-1.94,0-.34-.07-.66-.21-.93-.17-.17-.37-.3-.6-.39-.23-.09-.46-.16-.7-.23-1.42-.21-2.81-.21-4.19,0-.24,0-.43,.07-.57,.21-.04,.07-.05,.14-.05,.21s-.02,.14-.05,.21c-.07,1.62-.09,3.23-.08,4.81,.02,1.59,0,3.18-.03,4.76v.34c0,.12,.03,.22,.1,.28,.03,.1,.14,.21,.31,.31Z"/><path class="e" d="M199.49,28.73c.38,.52,.66,1.13,.83,1.84,.17,.71,.28,1.39,.31,2.04,.07,1.07,.06,2.14-.03,3.21-.09,1.07-.2,2.14-.34,3.21-.04,.38-.09,.77-.16,1.16-.07,.4-.19,.79-.36,1.17-.38,.72-.91,1.29-1.61,1.68-.69,.4-1.44,.68-2.25,.85-.81,.17-1.64,.28-2.48,.34s-1.63,.09-2.36,.13c-.59,.07-1.16,.09-1.71,.05-.55-.03-1.12-.03-1.71,0-.69,0-1.36,.02-1.99,.05-.64,.03-1.3,.03-1.99,0-.55,0-1.1-.03-1.63-.08-.54-.05-1.08-.11-1.63-.18-.48-.07-.95-.1-1.4-.1s-.91-.07-1.4-.21c-.41-.14-.8-.35-1.17-.62-.36-.28-.61-.64-.75-1.09-.07-.21-.1-.43-.1-.67v-.72c.1-2.48,.2-4.94,.28-7.35,.09-2.42,.13-4.87,.13-7.35,0-1.45,.02-2.9,.05-4.35,.03-1.45,.07-2.9,.1-4.35,0-.66,0-1.31-.03-1.97-.02-.66-.04-1.33-.08-2.02,0-.28,.02-.55,.05-.83,.03-.28-.1-.5-.41-.67-.35-.17-.71-.28-1.09-.31-.38-.03-.71-.24-.98-.62-.14-.17-.22-.37-.23-.6-.02-.22-.04-.46-.08-.7,0-.48-.03-1.01-.08-1.58-.05-.57-.08-1.14-.08-1.71s.05-1.13,.15-1.68c.1-.55,.29-1.05,.57-1.5,.07-.14,.16-.26,.26-.36,.14-.1,.38-.19,.73-.26,.66-.1,1.3-.14,1.94-.1,.64,.03,1.29,.05,1.94,.05,.69-.03,1.38-.05,2.07-.05h2.07c.93,0,1.86,0,2.79,.03,.93,.02,1.88,.03,2.85,.03,1.41,.07,2.83,.07,4.25,0,.79,0,1.56,.1,2.3,.28,.74,.19,1.46,.46,2.15,.8,.86,.41,1.48,1.16,1.86,2.23,.52,1.55,.83,3.16,.93,4.81,.07,1,.14,2,.21,3,.07,1,.12,2,.16,3,.07,1.21,.07,2.4,0,3.57-.07,1.17-.28,2.35-.62,3.52-.04,.17-.06,.33-.08,.47-.02,.14-.04,.28-.08,.41-.1,.35-.22,.66-.34,.96-.12,.29-.32,.58-.6,.85-.17,.17-.35,.36-.52,.57-.17,.21-.35,.43-.52,.67,.21,.07,.38,.1,.52,.1,.59,.1,1.04,.41,1.35,.93Zm-7.2,6.94c.21-.48,.21-1,0-1.55-.14-.31-.31-.53-.52-.67-.14-.07-.38-.1-.72-.1-1.45-.03-2.9-.03-4.35,0h-.7c-.33,0-.66,.02-.98,.05-.33,.03-.61,.1-.85,.21-.24,.1-.33,.28-.26,.52,.07,.24,.09,.47,.05,.7-.03,.23-.03,.46,0,.7,0,.28,.07,.47,.21,.57,.07,.03,.12,.05,.16,.05s.09,.02,.16,.05h.31c.69,.07,1.39,.12,2.1,.16,.71,.03,1.42,.05,2.15,.05,.24,0,.52,0,.83,.03,.31,.02,.62,.02,.93,0,.31-.02,.6-.08,.88-.18,.28-.1,.48-.29,.62-.57Zm-7.35-12.99c.21,.1,.48,.16,.83,.16,.69,0,1.41-.03,2.17-.08,.76-.05,1.43-.32,2.02-.8,.38-.28,.66-.61,.85-1.01,.19-.4,.32-.82,.39-1.27,.07-.45,.1-.9,.1-1.35s-.04-.9-.1-1.35c-.03-.66-.06-1.3-.08-1.94-.02-.64-.06-1.29-.13-1.94,0-.34-.07-.66-.21-.93-.17-.17-.37-.3-.6-.39-.23-.09-.46-.16-.7-.23-1.42-.21-2.81-.21-4.19,0-.24,0-.43,.07-.57,.21-.04,.07-.05,.14-.05,.21s-.02,.14-.05,.21c-.07,1.62-.09,3.23-.08,4.81,.02,1.59,0,3.18-.03,4.76v.34c0,.12,.03,.22,.1,.28,.03,.1,.14,.21,.31,.31Z"/><path class="e" d="M225.68,6.88c-.1,.45-.24,.86-.41,1.24-.17,.38-.33,.76-.47,1.14-.28,.86-.6,1.7-.98,2.51-.38,.81-.78,1.61-1.19,2.41-.72,1.45-1.41,2.93-2.04,4.43-.64,1.5-1.2,3.05-1.68,4.63-.41,1.31-.92,2.56-1.53,3.75s-1.15,2.43-1.63,3.7c-.48,1.31-.95,2.61-1.4,3.91-.45,1.29-.95,2.58-1.5,3.86-.28,.59-.56,1.16-.85,1.71-.29,.55-.63,1.07-1.01,1.55-.41,.48-.88,.91-1.4,1.27-.52,.36-1.09,.63-1.71,.8-.38,.1-.79,.16-1.22,.16h-1.22c-.28-.03-.54-.06-.8-.08-.26-.02-.51-.08-.75-.18-.31-.17-.58-.41-.8-.7-.22-.29-.37-.63-.44-1.01-.07-.38-.1-.74-.08-1.09,.02-.34,.06-.71,.13-1.09,.14-.66,.3-1.29,.49-1.92,.19-.62,.41-1.22,.65-1.81,.83-2.42,1.66-4.82,2.51-7.22,.85-2.4,1.7-4.79,2.56-7.17,.03-.07,.05-.14,.05-.21-1.42-2.49-2.8-4.98-4.14-7.48-1.35-2.5-2.67-5.03-3.99-7.58-.24-.45-.44-.91-.59-1.4-.16-.48-.13-.95,.08-1.4,.21-.52,.58-.89,1.11-1.11,.53-.22,1.1-.37,1.68-.44l2.48-.16c.28,0,.54,.02,.8,.05,.26,.03,.53,.09,.8,.16,.59,.24,1.11,.66,1.58,1.27,.47,.6,.82,1.2,1.06,1.79,.41,.93,.89,1.81,1.42,2.64,.53,.83,1.03,1.69,1.48,2.59,.07,.14,.17,.26,.31,.36,.14,.1,.26,.24,.36,.41,.34-.41,.64-.85,.88-1.32,.24-.47,.5-.94,.78-1.42,.31-.52,.62-1.04,.93-1.55,.31-.52,.62-1.02,.93-1.5,.28-.48,.56-.94,.85-1.37,.29-.43,.66-.78,1.11-1.06,.48-.34,1.04-.56,1.68-.65,.64-.09,1.25-.15,1.84-.18,.48,0,.97,.03,1.45,.1,.48,.07,.88,.28,1.19,.62,.21,.21,.35,.46,.44,.75,.09,.29,.16,.58,.23,.85,.1,.86,.09,1.67-.05,2.43Z"/><path class="e" d="M245.46,2.07c.9,.21,1.57,.72,2.02,1.55,.21,.45,.34,.89,.39,1.32,.05,.43,.06,.87,.03,1.32-.03,.72-.04,1.44-.03,2.15,.02,.71,.03,1.42,.03,2.15,0,.21-.02,.36-.05,.47,0,.38,0,.77,.03,1.17,.02,.4,0,.79-.03,1.19-.04,.4-.13,.77-.29,1.11-.15,.35-.41,.64-.75,.88-.35,.24-.72,.38-1.11,.41-.4,.03-.8,.03-1.22,0-.62,0-1.25,0-1.89-.03-.64-.02-1.27-.03-1.89-.03-.17-.03-.35-.06-.52-.08-.17-.02-.33-.06-.47-.13-.28-.17-.46-.41-.54-.7-.09-.29-.13-.58-.13-.85,0-.31,0-.62,.03-.93,.02-.31-.03-.6-.13-.88-.07-.14-.14-.22-.21-.26-.1-.07-.24-.1-.41-.1h-.8c-.29,0-.59,0-.88,.03-.29,.02-.56,.08-.8,.18-.24,.1-.41,.28-.52,.52-.17,.31-.24,.65-.21,1.01,.03,.36,.14,.7,.31,1.01,.14,.35,.32,.65,.54,.91,.22,.26,.47,.51,.75,.75,.73,.66,1.48,1.26,2.28,1.81,.79,.55,1.59,1.1,2.38,1.66,.79,.55,1.58,1.11,2.36,1.68,.78,.57,1.51,1.2,2.2,1.89,.41,.41,.71,.79,.88,1.14,.17,.31,.28,.64,.34,.98,.05,.35,.11,.69,.18,1.04,.07,.86,.11,1.72,.13,2.56,.02,.85,.04,1.68,.08,2.51v3.47c0,1.14-.04,2.28-.1,3.42,0,.48-.04,.98-.13,1.48-.09,.5-.16,1.01-.23,1.53-.04,.45-.28,.83-.73,1.14-.45,.38-.92,.64-1.42,.78-.5,.14-1.04,.22-1.63,.26l-4.35,.16c-.48,.03-.95,.07-1.4,.1-.45,.03-.91,.03-1.4,0-.59,0-1.18-.03-1.79-.08-.6-.05-1.2-.11-1.79-.18-.35-.04-.67-.06-.98-.08-.31-.02-.62-.04-.93-.08-.35-.07-.67-.1-.98-.08-.31,.02-.62-.03-.93-.13-.31-.1-.6-.25-.88-.44-.28-.19-.55-.37-.83-.54-.17-.14-.35-.28-.52-.44-.17-.16-.33-.34-.47-.54-.21-.31-.34-.66-.39-1.06-.05-.4-.1-.8-.13-1.22-.07-1.07-.1-2.14-.08-3.21,.02-1.07,.06-2.16,.13-3.26,.07-.55,.16-1.1,.26-1.66,.1-.55,.36-1.02,.78-1.4,.45-.41,.99-.66,1.63-.72,.64-.07,1.25-.09,1.84-.05,.34,0,.67,0,.98,.03,.31,.02,.64,.03,.98,.03,.31,.04,.63,.08,.96,.13,.33,.05,.61,.2,.85,.44,.17,.21,.28,.44,.34,.7,.05,.26,.09,.53,.13,.8,0,.52-.02,1.07-.05,1.66-.04,.59,.07,1.12,.31,1.6,0,.24,.14,.39,.41,.44,.28,.05,.6,.06,.96,.03,.36-.03,.71-.09,1.04-.16,.33-.07,.54-.1,.65-.1,.07-.03,.16-.06,.26-.08,.1-.02,.19-.06,.26-.13,.1-.07,.17-.18,.21-.34,.03-.16,.07-.3,.1-.44,.07-.76,.11-1.51,.13-2.25,.02-.74-.16-1.42-.54-2.04-.21-.38-.47-.72-.78-1.01-.31-.29-.64-.58-.98-.85-1.28-1.04-2.55-2.08-3.8-3.13-1.26-1.05-2.53-2.1-3.81-3.13-.24-.17-.47-.36-.7-.57-.22-.21-.41-.45-.54-.72-.17-.41-.29-.9-.36-1.45-.28-2.17-.39-4.38-.34-6.63,.05-2.24,.29-4.45,.7-6.63,.07-.24,.15-.47,.23-.7,.09-.22,.18-.46,.29-.7,.17-.38,.53-.69,1.09-.93,.52-.28,1.05-.46,1.61-.54,.55-.09,1.12-.15,1.71-.18,1.76-.14,3.52-.16,5.28-.08,1.76,.09,3.52,.11,5.28,.08,.41,0,.84,.04,1.27,.1,.43,.07,.85,.14,1.27,.21Z"/><path class="e" d="M284.75,37.17c.17,1.66,.35,3.31,.54,4.97,.19,1.66,.37,3.31,.54,4.97,.07,.48,.09,.96,.08,1.42-.02,.47-.18,.89-.49,1.27-.21,.28-.47,.47-.78,.59-.31,.12-.62,.22-.93,.28-.59,.14-1.16,.21-1.73,.21s-1.15-.03-1.73-.1c-.24-.04-.47-.07-.67-.1-.21-.03-.41-.09-.62-.16-.73-.31-1.26-.85-1.61-1.6-.17-.38-.3-.75-.39-1.11-.09-.36-.16-.73-.23-1.11-.1-.55-.21-1.1-.31-1.63-.1-.54-.19-1.08-.26-1.63-.07-.21-.1-.38-.1-.52-.1-.48-.19-1-.26-1.55-.07-.55-.26-1.04-.57-1.45-.31-.45-.64-.68-.98-.7-.35-.02-.76,0-1.24,.08-.52,.04-1.06,.02-1.63-.05-.57-.07-1.11-.12-1.63-.16-.35-.07-.59-.02-.73,.16-.07,.07-.11,.15-.13,.23-.02,.09-.04,.16-.08,.23-.07,.38-.16,.75-.29,1.11-.12,.36-.27,.7-.44,1.01-.17,.28-.38,.53-.62,.75-.24,.22-.5,.39-.78,.49-.48,.17-.97,.21-1.45,.13-.48-.09-.97-.15-1.45-.18-.48-.03-.95-.02-1.4,.05-.45,.07-.91,.09-1.4,.05-.45,0-.79-.09-1.04-.26-.21-.14-.35-.33-.44-.57-.09-.24-.15-.48-.18-.72-.07-.69,0-1.36,.23-2.02,.22-.66,.44-1.29,.65-1.92,.59-1.83,1.02-3.68,1.29-5.54,.28-1.86,.66-3.73,1.14-5.59,.31-1.31,.58-2.61,.8-3.91,.22-1.29,.47-2.6,.75-3.91,.24-1.14,.48-2.26,.72-3.37,.24-1.1,.53-2.21,.88-3.31,.17-.55,.3-1.12,.39-1.71,.09-.59,.18-1.17,.28-1.76,.1-.55,.22-1.1,.36-1.63,.14-.53,.34-1.06,.62-1.58,.07-.17,.16-.35,.26-.54,.1-.19,.19-.39,.26-.6,.14-.48,.34-.91,.62-1.27,.28-.36,.6-.7,.98-1.01,.28-.24,.56-.42,.85-.54,.29-.12,.61-.15,.96-.08,.55,.07,1.09,.08,1.61,.03s1.05-.08,1.61-.08c1.21,0,2.29,.24,3.26,.72,.69,.31,1.14,.83,1.35,1.55,.17,.41,.29,.9,.36,1.45,.14,.69,.26,1.39,.36,2.1,.1,.71,.21,1.42,.31,2.15,.45,3.04,.91,6.06,1.4,9.06,.48,3,.97,6.02,1.45,9.06,.14,.9,.28,1.79,.41,2.67,.14,.88,.28,1.77,.41,2.67,.14,.76,.31,1.5,.52,2.23s.31,1.48,.31,2.28Zm-10.51-6.63c.21-.17,.3-.51,.29-1.01-.02-.5-.1-1.04-.23-1.6-.14-.57-.28-1.12-.44-1.66-.16-.53-.25-.92-.28-1.16-.07-.55-.16-1.1-.29-1.66-.12-.55-.25-1.1-.39-1.66h-.16c-.1,0-.28,.4-.52,1.19-.24,.79-.49,1.69-.75,2.69-.26,1-.49,1.94-.7,2.82-.21,.88-.35,1.42-.41,1.63-.07,.31,.04,.52,.34,.62,.29,.1,.65,.16,1.06,.16s.83-.03,1.24-.08c.41-.05,.69-.09,.83-.13,.21-.07,.34-.12,.41-.16Z"/><path class="e" d="M312.5,45.09c.14,.28,.31,.62,.52,1.04,.21,.41,.37,.85,.49,1.29,.12,.45,.19,.89,.21,1.32,.02,.43-.09,.8-.34,1.11-.07,.14-.17,.25-.31,.34-.14,.09-.29,.16-.47,.23-.59,.28-1.2,.43-1.84,.47-.64,.03-1.29,.05-1.94,.05-.48-.03-.95-.08-1.4-.13-.45-.05-.86-.2-1.24-.44-.35-.24-.62-.52-.83-.83-.21-.31-.4-.62-.57-.93-.83-1.52-1.64-3.02-2.43-4.5-.79-1.48-1.57-3-2.33-4.56-.38-.72-.76-1.46-1.14-2.2-.38-.74-.71-1.51-.98-2.3-.14-.34-.26-.67-.36-.98-.1-.31-.24-.64-.41-.98-.1-.21-.3-.5-.6-.88-.29-.38-.44-.69-.44-.93,0,.55-.04,1.09-.1,1.61-.07,.52-.09,1.05-.05,1.6,.07,1.21,.11,2.43,.13,3.65,.02,1.23-.08,2.44-.29,3.65-.17,1-.72,1.61-1.66,1.81-.9,.24-1.8,.39-2.72,.44-.91,.05-1.84-.08-2.77-.39-.52-.17-.87-.37-1.06-.6-.19-.22-.28-.61-.28-1.16,0-1.1,.02-2.2,.05-3.29,.03-1.09,.05-2.18,.05-3.29-.04-.9-.08-1.79-.13-2.69-.05-.9-.09-1.79-.13-2.69-.04-.48-.07-.97-.1-1.45-.04-.48-.04-.97,0-1.45,.03-.69,.08-1.35,.13-1.99,.05-.64,.11-1.3,.18-1.99,.07-.52,.07-1.05,0-1.61-.14-1.28-.21-2.55-.21-3.83s.03-2.57,.1-3.88v-.57c.03-1.21,.06-2.39,.08-3.55,.02-1.16,.03-2.32,.03-3.49,0-.59,.04-1.15,.13-1.68,.09-.53,.25-1.06,.49-1.58,.24-.55,.66-.97,1.24-1.24,.9-.45,1.81-.67,2.74-.67,1.55,0,3.07-.02,4.56-.05,1.48-.03,2.98-.05,4.5-.05,1.31,.04,2.51,.16,3.6,.39,1.09,.23,2.15,.7,3.18,1.42,.17,.14,.34,.28,.52,.41,.17,.14,.33,.29,.47,.47,.28,.31,.46,.67,.54,1.06,.09,.4,.16,.79,.23,1.17,.17,1.1,.24,2.23,.21,3.36-.04,1.14-.07,2.26-.1,3.37-.07,1-.13,2.01-.18,3.03-.05,1.02-.13,2.03-.23,3.03-.07,.79-.16,1.64-.28,2.54-.12,.9-.42,1.67-.91,2.33-.52,.69-1.24,1.19-2.17,1.5-.14,.03-.35,.07-.62,.1-.28,.04-.56,.08-.85,.13-.29,.05-.56,.1-.8,.16-.24,.05-.4,.13-.47,.23-.07,.1-.05,.28,.05,.54s.23,.54,.39,.85c.15,.31,.3,.6,.44,.85,.14,.26,.24,.44,.31,.54,.28,.59,.53,1.16,.78,1.71,.24,.55,.5,1.1,.78,1.66,1.62,3.52,3.31,7.01,5.07,10.46l1.55,2.95Zm-12.58-29.87c.28-.38,.42-.8,.44-1.27,.02-.47,0-.92-.08-1.37l-.16-1.4c-.04-.17-.07-.34-.1-.49-.04-.16-.09-.3-.16-.44-.17-.21-.41-.34-.7-.41-.29-.07-.58-.12-.85-.16-.55-.03-1.11-.03-1.66,0-.24,.03-.47,.09-.67,.16-.21,.07-.38,.19-.52,.36-.07,.07-.1,.16-.1,.26s-.02,.21-.05,.31c-.07,.59-.09,1.18-.05,1.79,.03,.6,.07,1.2,.1,1.79v.6c0,.23,0,.44,.03,.65,.02,.21,.08,.39,.18,.54s.28,.28,.52,.39c.24,.1,.5,.12,.78,.05,.45-.03,.88-.1,1.29-.21,.41-.1,.79-.26,1.14-.47,.28-.21,.48-.43,.62-.67Z"/><path class="e" d="M335.38,31.01c.17,.35,.29,.72,.36,1.14,.1,1.21,.15,2.41,.13,3.6-.02,1.19-.15,2.39-.39,3.6-.07,.35-.16,.68-.26,1.01-.1,.33-.26,.63-.47,.91-.45,.59-1.04,1-1.76,1.24-.72,.24-1.45,.4-2.17,.47-.59,.07-1.29,.12-2.1,.16-.81,.03-1.65,.07-2.51,.1-.86,.03-1.71,.06-2.54,.08-.83,.02-1.52,.03-2.07,.03-2.35,.07-4.61-.16-6.78-.67-.35-.07-.67-.16-.98-.28-.31-.12-.62-.27-.93-.44-.66-.38-1.12-.93-1.4-1.66-.21-.48-.32-1-.34-1.55-.02-.55,0-1.1,.03-1.66,.07-1.35,.13-2.7,.18-4.06,.05-1.36,.11-2.74,.18-4.12,.07-1.28,.11-2.55,.13-3.83,.02-1.28,.04-2.57,.08-3.88,.07-1,.14-2.01,.21-3.03,.07-1.02,.14-2.03,.21-3.03,.07-.72,.1-1.46,.1-2.2s.02-1.48,.05-2.2c0-.97,.03-1.92,.08-2.87,.05-.95,.16-1.89,.34-2.82,.1-.59,.29-1.1,.57-1.55,.21-.34,.52-.64,.93-.88,.48-.28,.98-.47,1.5-.57,.52-.1,1.04-.19,1.55-.26,.59-.07,1.16-.12,1.71-.16,.55-.03,1.1-.05,1.66-.05,1.28-.03,2.54-.06,3.8-.08,1.26-.02,2.51-.03,3.75-.03,.41,0,.83,.03,1.24,.08,.41,.05,.83,.11,1.24,.18,.48,.07,.9,.22,1.24,.47,.34,.24,.6,.59,.78,1.04,.1,.28,.22,.56,.36,.85,.14,.29,.26,.58,.36,.85,.17,.55,.17,1.21,0,1.97-.04,.21-.06,.41-.08,.6-.02,.19-.03,.39-.03,.6-.03,1-.05,1.99-.05,2.95s-.02,1.95-.05,2.95c0,.24-.02,.41-.05,.52-.45,.62-1.05,1-1.81,1.14-.24,.04-.47,.09-.67,.16-.21,.07-.43,.12-.67,.16-.59,.03-1.17,.05-1.73,.05s-1.15,.02-1.73,.05c-.79-.38-1.24-1.05-1.35-2.02-.04-.41-.09-.82-.16-1.22-.07-.4-.14-.8-.21-1.22-.66-.07-1.3-.09-1.94-.05-.64,.04-1.3,.19-1.99,.47-.07,.17-.14,.36-.21,.57s-.1,.41-.1,.62c-.04,.69-.05,1.37-.05,2.04s-.02,1.36-.05,2.04h.83c.59,0,1.15,0,1.68-.03,.53-.02,1.08-.04,1.63-.08,.83-.03,1.49,.2,1.99,.7,.5,.5,.75,1.1,.75,1.79,.03,.59,.08,1.15,.13,1.68,.05,.54,.09,1.1,.13,1.68,0,.66-.05,1.29-.16,1.92-.1,.79-.54,1.29-1.29,1.5-.28,.07-.54,.12-.8,.16-.26,.03-.53,.07-.8,.1-.38,.04-.75,.04-1.11,.03-.36-.02-.73,0-1.11,.03-.24,.04-.47,.07-.7,.1-.23,.03-.47,.07-.75,.1-.07,.14-.1,.26-.1,.36,0,.79,0,1.59-.03,2.38-.02,.79,0,1.59,.03,2.38,0,1,.52,1.61,1.55,1.81,1.24,.28,2.48,.31,3.73,.1,.17-.03,.34-.07,.49-.1,.16-.03,.3-.12,.44-.26,.17-.14,.29-.32,.36-.54,.07-.22,.12-.44,.15-.65,.03-.28,.06-.53,.08-.78,.02-.24,.06-.5,.13-.78,.17-.21,.52-.4,1.04-.57,.83-.17,1.66-.28,2.48-.31,.83-.03,1.67-.05,2.54-.05,.38,0,.69,.1,.93,.31,.24,.21,.45,.45,.62,.72Z"/><path class="e" d="M337.4,17.18c-.35-.38-.5-.89-.47-1.53,.03-.64,.05-1.2,.05-1.68,.03-.59,.1-1.18,.21-1.79,.1-.6,.28-1.18,.52-1.73,.31-.79,.75-1.5,1.32-2.12,.57-.62,1.25-1.1,2.04-1.45,.69-.31,1.42-.5,2.2-.57,.78-.07,1.54-.07,2.3,0,.48,0,.95,.02,1.4,.05,.45,.04,.91,.09,1.4,.16,.21,.03,.41,.06,.6,.08,.19,.02,.39,.04,.6,.08,.73,.17,1.39,.5,1.99,.98,.6,.48,1.13,1.02,1.58,1.61,.72,.93,1.29,1.95,1.71,3.05,.17,.45,.37,.92,.6,1.42,.22,.5,.37,.99,.44,1.48,.07,.59,.07,1.19,0,1.81-.07,.62-.16,1.23-.26,1.81-.07,.59-.19,1.16-.36,1.73-.17,.57-.4,1.13-.67,1.68-.55,1.07-1.25,1.96-2.1,2.67-.85,.71-1.65,1.49-2.41,2.36-.35,.38-.66,.75-.96,1.11-.29,.36-.54,.75-.75,1.16-.38,.79-.65,1.63-.8,2.51-.16,.88-.32,1.77-.49,2.67l-.78,3.88c-.07,.45-.14,.97-.21,1.55-.07,.59-.33,1.02-.78,1.29-.38,.24-.86,.36-1.45,.36-.17,0-.36-.02-.57-.05-.21-.03-.4-.1-.57-.21-.35-.21-.59-.48-.73-.83-.14-.34-.24-.71-.31-1.09-.35-1.66-.54-3.3-.57-4.92-.04-1.62,.03-3.26,.21-4.92,.07-.66,.15-1.29,.26-1.92,.1-.62,.31-1.21,.62-1.76,.17-.31,.37-.61,.6-.91,.22-.29,.47-.58,.75-.85,.79-.83,1.62-1.65,2.48-2.46,.86-.81,1.59-1.68,2.17-2.61,.24-.34,.43-.69,.57-1.04,.14-.34,.19-.71,.16-1.09-.07-.55-.32-1.08-.75-1.58-.43-.5-.91-.84-1.42-1.01-.28-.07-.66-.15-1.16-.23-.5-.09-.89-.04-1.17,.13-.21,.1-.28,.22-.23,.34,.05,.12,.08,.3,.08,.54,0,.41-.07,.81-.21,1.19-.1,.28-.26,.53-.47,.75-.21,.22-.45,.39-.72,.49-.17,.07-.34,.12-.49,.16-.16,.03-.32,.07-.49,.1-1.17,.1-2.36-.03-3.57-.41-.28-.07-.47-.14-.57-.21-.21-.14-.33-.22-.36-.26Zm8.7,26.71c.17,.07,.28,.21,.31,.41,.03,.21,.05,.4,.05,.57,0,.52,0,1.04-.03,1.55-.02,.52-.03,1.04-.03,1.55,0,.21-.02,.34-.05,.41-.03,.03-.14,.1-.31,.21-.48,.21-.98,.36-1.48,.47-.5,.1-1.01,.19-1.53,.26-.17,.03-.33,.05-.47,.05s-.26-.05-.36-.16c-.14-.07-.22-.18-.26-.34-.04-.16-.07-.32-.1-.49-.04-.28-.08-.6-.13-.96-.05-.36-.09-.72-.1-1.09-.02-.36,0-.71,.08-1.04,.07-.33,.21-.61,.41-.85,.17-.17,.44-.33,.8-.47,.36-.14,.74-.23,1.14-.28,.4-.05,.79-.06,1.17-.03,.38,.03,.67,.1,.88,.21Z"/></g></g></g></g></svg>