<?xml version="1.0" encoding="UTF-8"?><svg xmlns="http://www.w3.org/2000/svg" viewBox="0 0 217.66 203.98"><defs><style>.d{fill:#fff;}</style></defs><g id="a"/><g id="b"><g id="c"><g><path class="d" d="M35.79,13.11C40.49,6.57,46.48,1.81,54.7,.44c10.39-1.72,18.93,1.62,26.16,9.14,1.37,1.42,3.76,2.65,5.67,2.64,14.03-.08,23.84,7.59,26.7,21.29,.13,.63,.36,1.25,.58,2.03,9.7,.76,17.06,4.72,19.58,14.76,1.95,7.74-.52,14.29-6.68,19.09-7.49,5.84-15.42,5.15-23.31,.09-4.71,4.71-10.2,5.26-16.25,2.98-5.09,6.52-11.43,8.91-19.47,6.51-1.11-.33-2.82,.39-3.94,1.12-11.97,7.81-24.72,6.19-34.17-4.24-1.14-1.26-3.22-2.25-4.93-2.34-10.93-.61-19.79-6.44-23.08-16.15-3.49-10.29-1.13-19.31,6.82-26.87,1.08-1.02,2.23-2.57,2.32-3.94,.97-15.07,11.27-20.74,25.09-13.45Z"/><path class="d" d="M47.82,149.79c7.53-24.97,16.13-31.08,43.51-31.09,.74-2.09,1.5-4.35,2.33-6.58,5.6-15.15,19.64-25.35,35.47-25.79,16.13-.44,30.77,8.49,36.97,23.42,2.01,4.84,3.94,6.95,9.69,7.17,24.4,.92,42.46,20.46,41.85,44.33-.61,23.54-19.18,42.35-43.1,42.53-44.96,.33-89.92,.2-134.88,.05-17.22-.06-29.92-13.65-28.54-29.87,1.42-16.65,16.52-27.58,33.84-24.52,.79,.14,1.59,.2,2.86,.36Z"/></g></g></g></svg>