<?xml version="1.0" encoding="UTF-8"?><svg xmlns="http://www.w3.org/2000/svg" viewBox="0 0 50.83 51.67"><defs><style>.d{fill:#9982a2;}.e{fill:#fff;}.f{fill:#95daf8;stroke:#000;stroke-miterlimit:10;stroke-width:2px;}</style></defs><g id="a"/><g id="b"><g id="c"><g><circle class="d" cx="27.17" cy="28.01" r="23.66"/><g><path class="f" d="M48.32,24.66c0,13.07-10.59,23.66-23.66,23.66S1,37.72,1,24.66,11.59,1,24.66,1s23.66,10.59,23.66,23.66Z"/><path class="e" d="M37.2,17.57c-.92,.41-1.91,.69-2.96,.81,1.06-.64,1.88-1.65,2.26-2.85-.99,.59-2.1,1.02-3.27,1.25-.94-1-2.28-1.62-3.76-1.62-2.84,0-5.15,2.3-5.15,5.15,0,.4,.05,.8,.13,1.17-4.28-.21-8.07-2.26-10.61-5.38-.44,.76-.7,1.64-.7,2.59,0,1.79,.91,3.36,2.29,4.28-.84-.03-1.64-.26-2.33-.64,0,.02,0,.04,0,.06,0,2.49,1.77,4.57,4.13,5.05-.43,.12-.89,.18-1.36,.18-.33,0-.65-.03-.97-.09,.65,2.04,2.56,3.53,4.81,3.57-1.76,1.38-3.98,2.2-6.39,2.2-.42,0-.82-.02-1.23-.07,2.28,1.46,4.98,2.31,7.89,2.31,9.46,0,14.64-7.84,14.64-14.64,0-.22,0-.44-.01-.67,1.01-.73,1.88-1.63,2.57-2.66Z"/></g></g></g></g></svg>